<svg width="209" height="209" viewBox="0 0 209 209" fill="none" xmlns="http://www.w3.org/2000/svg">
<path d="M160.93 29.2601C162.084 29.2601 163.02 28.3244 163.02 27.1701C163.02 26.0158 162.084 25.0801 160.93 25.0801C159.776 25.0801 158.84 26.0158 158.84 27.1701C158.84 28.3244 159.776 29.2601 160.93 29.2601Z" fill="#E68314"/>
<path d="M104.5 181.83C147.208 181.83 181.83 147.208 181.83 104.5C181.83 61.7917 147.208 27.1699 104.5 27.1699C61.7917 27.1699 27.1699 61.7917 27.1699 104.5C27.1699 147.208 61.7917 181.83 104.5 181.83Z" fill="#F2F0E0"/>
<path d="M173.47 39.71C178.087 39.71 181.83 35.9671 181.83 31.35C181.83 26.7329 178.087 22.99 173.47 22.99C168.853 22.99 165.11 26.7329 165.11 31.35C165.11 35.9671 168.853 39.71 173.47 39.71Z" fill="#E68314"/>
<path d="M181.83 54.34C184.138 54.34 186.01 52.4685 186.01 50.16C186.01 47.8514 184.138 45.98 181.83 45.98C179.521 45.98 177.65 47.8514 177.65 50.16C177.65 52.4685 179.521 54.34 181.83 54.34Z" fill="#88AE45"/>
<path d="M169.29 163.02C171.598 163.02 173.47 161.149 173.47 158.84C173.47 156.531 171.598 154.66 169.29 154.66C166.981 154.66 165.11 156.531 165.11 158.84C165.11 161.149 166.981 163.02 169.29 163.02Z" fill="#E68314"/>
<path d="M31.35 140.03C35.9671 140.03 39.71 136.287 39.71 131.67C39.71 127.053 35.9671 123.31 31.35 123.31C26.7329 123.31 22.99 127.053 22.99 131.67C22.99 136.287 26.7329 140.03 31.35 140.03Z" fill="#E68314"/>
<path d="M52.2501 186.01C54.5586 186.01 56.4301 184.139 56.4301 181.83C56.4301 179.521 54.5586 177.65 52.2501 177.65C49.9415 177.65 48.0701 179.521 48.0701 181.83C48.0701 184.139 49.9415 186.01 52.2501 186.01Z" fill="#88AE45"/>
<path d="M38.6649 112.86C41.5506 112.86 43.8899 110.521 43.8899 107.635C43.8899 104.749 41.5506 102.41 38.6649 102.41C35.7793 102.41 33.4399 104.749 33.4399 107.635C33.4399 110.521 35.7793 112.86 38.6649 112.86Z" fill="white"/>
<path d="M166.155 73.1499C167.886 73.1499 169.29 71.7463 169.29 70.0149C169.29 68.2835 167.886 66.8799 166.155 66.8799C164.424 66.8799 163.02 68.2835 163.02 70.0149C163.02 71.7463 164.424 73.1499 166.155 73.1499Z" fill="white"/>
<path d="M167.2 73.15C168.354 73.15 169.29 72.2142 169.29 71.06C169.29 69.9057 168.354 68.97 167.2 68.97C166.046 68.97 165.11 69.9057 165.11 71.06C165.11 72.2142 166.046 73.15 167.2 73.15Z" fill="white"/>
<path d="M154.66 83.6001V125.4C154.66 129.392 152.8 132.945 149.895 135.244C147.763 136.937 145.067 137.94 142.12 137.94H66.8801C63.9332 137.94 61.2162 136.937 59.0844 135.202C56.2002 132.924 54.3401 129.371 54.3401 125.4V83.6001C54.3401 79.2947 56.5346 75.47 59.8577 73.2546C59.9622 73.1501 60.0876 73.0665 60.1921 73.0038C62.1149 71.7707 64.4139 71.0601 66.8801 71.0601H142.12C144.586 71.0601 146.885 71.7707 148.808 73.0038C148.913 73.0665 149.038 73.1501 149.142 73.2546C152.466 75.47 154.66 79.2947 154.66 83.6001Z" fill="#074D42" fill-opacity="0.75"/>
<path d="M149.895 135.244C147.763 136.937 145.067 137.94 142.12 137.94H66.8799C63.933 137.94 61.216 136.937 59.0842 135.202L104.5 96.0354L149.895 135.244Z" fill="#88AE45"/>
<path d="M149.142 73.2546L104.5 109.976L59.8577 73.2546C59.9622 73.1501 60.0876 73.0665 60.1921 73.0038C62.1149 71.7707 64.4139 71.0601 66.8801 71.0601H142.12C144.586 71.0601 146.885 71.7707 148.808 73.0038C148.913 73.0665 149.038 73.1501 149.142 73.2546Z" fill="#BFEC6F"/>
<path d="M104.5 110.77C104.324 110.77 104.147 110.712 104.003 110.592L59.6611 74.1261C59.3267 73.8524 59.2786 73.357 59.5545 73.0226C59.8304 72.6882 60.3257 72.6402 60.658 72.916L104.5 108.973L148.344 72.9181C148.676 72.6423 149.169 72.6903 149.447 73.0247C149.723 73.3591 149.673 73.8524 149.341 74.1282L104.997 110.592C104.853 110.712 104.675 110.77 104.5 110.77Z" fill="#472B29"/>
<path d="M58.9923 136.124C58.7728 136.124 58.5554 136.032 58.3987 135.852C58.1165 135.524 58.1521 135.029 58.4802 134.746L88.3588 108.855C88.6828 108.569 89.1823 108.603 89.4645 108.931C89.7487 109.257 89.7173 109.752 89.3892 110.036L81.5998 116.839L59.5043 135.934C59.3559 136.063 59.1741 136.124 58.9923 136.124Z" fill="#472B29"/>
<path d="M142.12 71.896C148.574 71.896 153.824 77.146 153.824 83.6V125.4C153.824 131.854 148.574 137.104 142.12 137.104H66.88C60.4261 137.104 55.176 131.854 55.176 125.4V83.6C55.176 77.146 60.4261 71.896 66.88 71.896H142.12ZM142.12 68.97H66.88C58.8001 68.97 52.25 75.52 52.25 83.6V125.4C52.25 133.48 58.8001 140.03 66.88 140.03H142.12C150.2 140.03 156.75 133.48 156.75 125.4V83.6C156.75 75.52 150.2 68.97 142.12 68.97Z" fill="#472B29"/>
<path d="M150.008 136.124C149.826 136.124 149.642 136.061 149.493 135.931L119.629 110.038C119.301 109.754 119.268 109.259 119.55 108.933C119.832 108.607 120.33 108.573 120.656 108.853L150.522 134.746C150.85 135.031 150.883 135.526 150.601 135.852C150.444 136.032 150.227 136.124 150.008 136.124Z" fill="#472B29"/>
<path d="M147.345 44.9351C162.326 44.9351 174.515 54.3108 174.515 65.8351C174.515 77.3593 162.326 86.7351 147.345 86.7351C146.367 86.7351 145.328 86.6849 144.168 86.5804L143.746 86.5428L143.416 86.8103C138.423 90.8628 133.637 93.0051 129.58 93.0051C129.003 93.0051 128.535 92.5369 128.535 91.9601C128.535 91.8221 128.568 91.6842 128.623 91.563L128.986 90.8147C130.215 88.4718 130.997 85.9785 131.308 83.4015L131.39 82.7243L130.803 82.3774C124.048 78.3709 120.175 72.3412 120.175 65.8351C120.175 54.3108 132.364 44.9351 147.345 44.9351Z" fill="#E1E0D8"/>
<path d="M147.345 45.9799C161.751 45.9799 173.47 54.8875 173.47 65.8349C173.47 76.7823 161.751 85.6899 147.345 85.6899C146.398 85.6899 145.391 85.6397 144.262 85.5394L143.418 85.4642L142.759 85.9992C137.952 89.8991 133.396 91.962 129.563 92.0205L129.912 91.3015C131.2 88.8479 132.019 86.2312 132.347 83.5288L132.512 82.1745L131.34 81.4785C124.907 77.6643 121.22 71.9628 121.22 65.8349C121.22 54.8875 132.939 45.9799 147.345 45.9799ZM147.345 43.8899C131.762 43.8899 119.13 53.715 119.13 65.8349C119.13 72.9555 123.511 79.2673 130.27 83.2759C130.046 85.1277 129.469 87.642 128.06 90.3297L127.682 91.1072C127.563 91.3684 127.49 91.6527 127.49 91.9599C127.49 93.1136 128.426 94.0499 129.58 94.0499C132.23 94.0499 137.154 93.239 144.076 87.6211C145.15 87.7172 146.237 87.7799 147.345 87.7799C162.928 87.7799 175.56 77.9548 175.56 65.8349C175.56 53.715 162.928 43.8899 147.345 43.8899Z" fill="#472B29"/>
<path d="M149.957 57.4749H132.192C131.904 57.4749 131.67 57.2409 131.67 56.9524C131.67 56.664 131.904 56.4299 132.192 56.4299H149.957C150.246 56.4299 150.48 56.664 150.48 56.9524C150.48 57.2409 150.246 57.4749 149.957 57.4749Z" fill="#472B29"/>
<path d="M160.408 57.4749H153.093C152.804 57.4749 152.57 57.2409 152.57 56.9524C152.57 56.664 152.804 56.4299 153.093 56.4299H160.408C160.696 56.4299 160.93 56.664 160.93 56.9524C160.93 57.2409 160.696 57.4749 160.408 57.4749Z" fill="#472B29"/>
<path d="M139.508 62.7H130.103C129.814 62.7 129.58 62.466 129.58 62.1775C129.58 61.8891 129.814 61.655 130.103 61.655H139.508C139.796 61.655 140.03 61.8891 140.03 62.1775C140.03 62.466 139.796 62.7 139.508 62.7Z" fill="#472B29"/>
<path d="M164.588 62.7H142.643C142.354 62.7 142.12 62.466 142.12 62.1775C142.12 61.8891 142.354 61.655 142.643 61.655H164.588C164.876 61.655 165.11 61.8891 165.11 62.1775C165.11 62.466 164.876 62.7 164.588 62.7Z" fill="#472B29"/>
<path d="M156.228 67.9249H130.103C129.814 67.9249 129.58 67.6908 129.58 67.4024C129.58 67.114 129.814 66.8799 130.103 66.8799H156.228C156.516 66.8799 156.75 67.114 156.75 67.4024C156.75 67.6908 156.516 67.9249 156.228 67.9249Z" fill="#472B29"/>
<path d="M147.867 73.15H132.192C131.904 73.15 131.67 72.9159 131.67 72.6275C131.67 72.3391 131.904 72.105 132.192 72.105H147.867C148.156 72.105 148.39 72.3391 148.39 72.6275C148.39 72.9159 148.156 73.15 147.867 73.15Z" fill="#472B29"/>
<path d="M161.975 90.9149C167.746 90.9149 172.425 86.2363 172.425 80.4649C172.425 74.6935 167.746 70.0149 161.975 70.0149C156.204 70.0149 151.525 74.6935 151.525 80.4649C151.525 86.2363 156.204 90.9149 161.975 90.9149Z" fill="#E68314"/>
<path d="M161.975 71.06C167.16 71.06 171.38 75.2797 171.38 80.465C171.38 85.6503 167.16 89.87 161.975 89.87C156.79 89.87 152.57 85.6503 152.57 80.465C152.57 75.2797 156.79 71.06 161.975 71.06ZM161.975 68.97C155.626 68.97 150.48 74.1156 150.48 80.465C150.48 86.8144 155.626 91.96 161.975 91.96C168.324 91.96 173.47 86.8144 173.47 80.465C173.47 74.1156 168.324 68.97 161.975 68.97Z" fill="#472B29"/>
<path d="M164.659 77.9278L164.264 81.2237C164.247 81.345 164.234 81.462 164.228 81.5728C164.222 81.6835 164.218 81.788 164.218 81.8842C164.218 82.1977 164.347 82.3544 164.606 82.3544C164.97 82.3544 165.3 82.0974 165.599 81.5832C165.892 81.0774 166.038 80.4985 166.038 79.8506C166.038 78.8202 165.679 77.978 164.958 77.3217C164.243 76.6571 163.327 76.3227 162.213 76.3227C161.049 76.3227 160.071 76.7198 159.275 77.5161C158.485 78.3061 158.088 79.2863 158.088 80.4546C158.088 81.0983 158.23 81.7316 158.514 82.3503C158.802 82.9313 159.206 83.412 159.726 83.7882C160.42 84.2898 161.292 84.5406 162.337 84.5406C163.317 84.5406 164.341 84.2919 165.413 83.7944L165.507 83.7443L165.833 84.6493L165.758 84.6869C164.665 85.2136 163.528 85.4769 162.343 85.4769C161.033 85.4769 159.937 85.1613 159.053 84.528C158.405 84.0682 157.898 83.4789 157.534 82.7641C157.174 82.0117 156.995 81.2446 156.995 80.4672C156.995 79.0481 157.494 77.8588 158.495 76.8954C159.496 75.9319 160.729 75.4512 162.199 75.4512C163.551 75.4512 164.682 75.865 165.595 76.6947C166.504 77.514 166.958 78.5423 166.958 79.7775C166.958 80.7326 166.711 81.5498 166.218 82.2311C165.72 82.9208 165.135 83.2678 164.466 83.2678C163.931 83.2678 163.566 83.0149 163.373 82.5091C162.859 83.0358 162.284 83.2991 161.653 83.2991C160.964 83.2991 160.387 83.0504 159.927 82.553C159.475 82.0597 159.25 81.4286 159.25 80.6636C159.25 79.8402 159.503 79.1609 160.008 78.6301C160.514 78.0867 161.152 77.815 161.917 77.815C162.619 77.815 163.187 78.0867 163.618 78.6301L163.706 77.9341H164.659V77.9278ZM163.377 80.3522C163.377 79.9635 163.246 79.6395 162.982 79.3783C162.711 79.1191 162.381 78.9895 161.99 78.9895C161.568 78.9895 161.223 79.1526 160.953 79.4786C160.681 79.8005 160.546 80.2122 160.546 80.7159C160.546 81.1506 160.654 81.508 160.872 81.7901C161.089 82.0702 161.369 82.2102 161.712 82.2102C162.151 82.2102 162.537 82.0242 162.874 81.6522C163.208 81.2781 163.377 80.8455 163.377 80.3522Z" fill="white"/>
</svg>
