<?xml version="1.0" standalone="no"?>
<!DOCTYPE svg PUBLIC "-//W3C//DTD SVG 20010904//EN"
 "http://www.w3.org/TR/2001/REC-SVG-20010904/DTD/svg10.dtd">
<svg version="1.0" xmlns="http://www.w3.org/2000/svg"
 width="768.000000pt" height="606.000000pt" viewBox="0 0 768.000000 606.000000"
 preserveAspectRatio="xMidYMid meet">

<g transform="translate(0.000000,606.000000) scale(0.100000,-0.100000)"
fill="#000000" stroke="none">
<path d="M261 6051 c-8 -5 -21 -7 -30 -4 -14 4 -14 3 -1 -6 8 -6 11 -11 5 -11
-5 0 -3 -5 5 -10 11 -7 11 -10 2 -10 -8 0 -12 -9 -10 -22 2 -17 -1 -22 -14
-20 -12 2 -16 -2 -12 -13 4 -9 1 -15 -9 -15 -9 0 -13 -8 -12 -25 2 -17 -2 -25
-12 -25 -9 0 -13 -6 -9 -15 4 -11 -1 -15 -18 -15 -13 0 -29 -7 -36 -15 -11
-13 -10 -14 5 -9 13 5 16 4 11 -4 -4 -7 -13 -12 -21 -12 -18 0 -58 -57 -50
-70 3 -6 -4 -14 -17 -19 l-23 -9 28 -11 c16 -6 33 -11 38 -11 19 0 8 -28 -22
-54 -24 -22 -33 -25 -45 -15 -12 10 -14 -89 -14 -746 l0 -757 97 94 c53 51
177 172 276 268 344 336 335 326 320 389 -5 20 -9 45 -7 56 4 39 15 130 19
160 3 17 9 91 15 165 18 227 33 365 40 370 4 3 17 34 29 70 19 54 23 90 25
212 l3 148 -271 0 c-149 0 -277 -4 -285 -9z"/>
<path d="M2788 6053 c6 -2 18 -2 25 0 6 3 1 5 -13 5 -14 0 -19 -2 -12 -5z"/>
<path d="M4963 6043 c-4 -9 -1 -19 5 -21 7 -2 12 -15 12 -28 0 -14 -4 -23 -9
-19 -5 3 -13 0 -17 -6 -4 -7 -3 -9 4 -5 6 3 13 2 17 -4 3 -5 -1 -10 -9 -10 -9
0 -16 -4 -16 -10 0 -5 9 -10 19 -10 10 0 21 -6 24 -14 4 -9 0 -12 -13 -9 -16
4 -17 1 -10 -31 4 -20 4 -34 -1 -31 -4 3 -11 -11 -14 -32 -4 -21 -11 -48 -16
-61 -7 -17 -6 -21 2 -16 8 5 9 3 3 -7 -5 -8 -7 -21 -6 -29 1 -9 -6 -25 -17
-36 -12 -13 -16 -26 -11 -34 5 -9 3 -18 -7 -25 -14 -11 -14 -12 1 -18 12 -5
15 -3 10 6 -5 9 -4 9 6 0 12 -11 11 -15 -6 -28 -11 -9 -13 -13 -4 -10 8 3 20
1 25 -3 14 -10 38 -65 25 -57 -5 3 -10 2 -10 -4 0 -6 9 -15 20 -21 11 -6 20
-20 20 -30 0 -11 5 -20 11 -20 6 0 9 7 5 15 -3 8 2 22 11 31 13 12 13 18 3 24
-9 6 -9 9 0 12 7 2 12 21 12 43 0 22 5 43 11 47 9 6 9 8 0 8 -7 0 -13 9 -13
20 0 11 5 20 11 20 8 0 8 4 -1 15 -6 8 -9 19 -5 25 3 5 -1 13 -9 16 -9 3 -16
14 -16 23 0 14 2 14 10 1 8 -12 10 -9 10 13 0 16 -4 26 -10 22 -17 -11 -11 17
8 31 12 10 13 13 2 9 -12 -4 -16 3 -18 27 -1 24 1 29 7 18 5 -8 8 -17 6 -20
-2 -4 2 -7 10 -7 11 0 12 4 4 14 -6 7 -8 20 -5 29 4 10 0 18 -13 21 -12 3 -17
11 -14 19 3 8 8 12 12 10 4 -3 13 4 20 16 11 18 10 19 -8 13 -16 -5 -19 -3
-15 8 3 8 1 18 -5 22 -6 3 -11 12 -11 18 0 7 4 6 10 -3 8 -12 10 -10 10 8 0
15 -4 21 -12 17 -7 -3 -3 1 9 10 12 9 19 23 16 31 -7 20 -62 18 -70 -3z"/>
<path d="M5315 6038 c6 -23 6 -23 -11 -3 -16 20 -16 19 -8 -5 8 -27 8 -38 3
-60 -2 -8 1 -14 7 -13 6 1 11 -5 11 -13 0 -7 -5 -14 -11 -14 -5 0 -2 -6 9 -13
12 -9 14 -16 7 -21 -6 -4 -8 -14 -5 -23 5 -12 3 -14 -8 -8 -11 7 -12 6 -3 -6
14 -17 15 -199 2 -248 -7 -23 -7 -36 0 -39 11 -3 4 -40 -12 -61 -8 -11 -8 -13
0 -8 7 4 14 0 18 -8 3 -8 0 -15 -6 -15 -7 0 -7 -4 1 -13 6 -8 8 -17 4 -20 -3
-4 -2 -7 3 -7 6 0 10 -84 10 -205 0 -113 -4 -205 -8 -205 -5 0 -5 -7 0 -16 5
-9 7 -26 4 -36 -3 -11 1 -24 9 -29 9 -6 10 -12 4 -16 -13 -10 -17 -33 -6 -33
5 0 11 -11 13 -25 3 -14 1 -25 -5 -25 -5 0 -4 -7 3 -15 7 -8 10 -23 7 -34 -2
-10 -1 -25 4 -32 4 -8 1 -18 -9 -26 -9 -7 -13 -13 -8 -13 5 0 3 -7 -4 -15 -11
-13 -10 -14 3 -9 12 4 14 1 10 -18 -4 -13 -10 -25 -14 -28 -4 -3 -3 -25 3 -50
9 -33 9 -45 0 -48 -8 -2 -9 -9 -3 -20 5 -10 10 -35 12 -57 1 -22 6 -44 9 -50
14 -21 20 -64 9 -70 -6 -4 -7 -14 -4 -24 13 -29 14 -65 4 -78 -6 -7 -7 -18 -2
-25 12 -20 12 -152 -1 -160 -7 -5 -7 -8 2 -8 9 0 11 -7 7 -20 -4 -11 -2 -20 4
-20 13 0 41 -64 41 -92 0 -18 5 -20 32 -14 18 3 36 13 40 20 5 8 21 17 37 21
16 3 35 13 42 21 6 8 18 14 26 14 16 0 121 57 140 76 7 7 10 19 7 27 -3 8 1
21 9 28 12 12 12 16 -2 27 -12 10 -13 15 -3 18 6 3 12 10 12 15 0 6 -6 7 -12
3 -9 -5 -9 -2 1 9 7 9 10 17 5 17 -5 0 -8 30 -7 68 2 37 3 80 3 96 0 16 5 36
11 43 7 7 7 13 2 13 -5 0 -8 12 -7 28 0 15 -4 30 -10 34 -7 5 -4 8 7 8 16 0
23 27 18 69 -2 8 2 10 11 5 10 -6 10 -4 2 7 -9 12 -11 34 -4 42 2 1 3 16 4 32
1 17 5 35 8 41 7 10 1 109 -7 131 -2 8 2 10 13 6 14 -5 15 -3 5 7 -9 9 -9 19
-2 33 9 15 8 18 -3 11 -8 -5 -7 0 4 18 13 20 14 28 5 38 -9 10 -9 14 0 17 7 2
10 10 7 18 -3 7 -1 22 5 33 7 13 7 22 -1 30 -7 7 -8 16 -2 24 11 14 15 51 18
133 0 30 5 49 12 48 6 -1 11 4 11 12 0 8 -4 12 -8 9 -4 -2 -4 8 0 24 5 16 8
63 7 105 -1 71 0 76 18 71 15 -5 18 -3 13 11 -4 9 -7 22 -7 28 0 6 -7 2 -15
-9 -14 -18 -14 -17 -3 9 11 25 13 26 22 10 9 -16 10 -16 16 6 3 14 12 26 20
29 11 2 12 1 3 -5 -7 -5 -15 -28 -19 -51 -4 -23 -10 -42 -15 -42 -13 0 -11
-34 4 -49 10 -10 8 -11 -7 -5 -16 6 -17 4 -7 -14 9 -17 8 -23 -5 -30 -13 -7
-14 -13 -5 -31 7 -11 17 -21 24 -21 7 0 18 -9 25 -20 10 -17 10 -20 -2 -20 -8
0 -18 5 -21 10 -4 6 -11 8 -16 5 -10 -7 14 -35 30 -35 6 0 11 -4 11 -10 0 -5
-5 -9 -11 -7 -6 1 -14 -4 -17 -12 -3 -9 0 -11 8 -6 10 6 12 4 7 -8 -3 -10 -2
-17 3 -17 17 0 31 39 27 75 -3 25 0 35 10 35 8 0 11 -4 8 -10 -3 -5 -1 -10 5
-10 6 0 8 -6 4 -12 -4 -7 -3 -10 1 -5 5 4 10 53 12 109 3 58 9 109 16 117 10
12 9 13 -1 7 -10 -6 -12 5 -7 56 3 34 5 69 5 76 0 6 1 24 1 40 1 15 1 47 2 72
0 28 6 50 16 58 9 8 10 11 4 7 -16 -7 -16 -4 -3 30 5 14 6 24 2 21 -4 -2 -8 4
-8 14 0 10 4 16 8 14 4 -3 8 -1 8 5 0 5 -5 13 -11 17 -8 4 -7 9 2 15 8 5 10 9
4 9 -8 0 -12 61 -5 80 2 3 2 8 1 13 0 4 5 7 12 7 8 0 14 6 14 14 0 12 -55 15
-359 16 l-360 1 7 -23z m565 -262 c0 -3 -4 -8 -10 -11 -5 -3 -10 -1 -10 4 0 6
5 11 10 11 6 0 10 -2 10 -4z m-19 -99 c-10 -9 -11 -8 -5 6 3 10 9 15 12 12 3
-3 0 -11 -7 -18z m37 -252 c-3 -3 -9 2 -12 12 -6 14 -5 15 5 6 7 -7 10 -15 7
-18z m-1 -57 c-3 -8 -6 -5 -6 6 -1 11 2 17 5 13 3 -3 4 -12 1 -19z"/>
<path d="M7635 6050 c3 -5 8 -10 11 -10 2 0 4 5 4 10 0 6 -5 10 -11 10 -5 0
-7 -4 -4 -10z"/>
<path d="M1353 6019 c-1 -11 2 -19 7 -19 5 0 7 -6 4 -13 -3 -8 2 -14 10 -14 8
0 13 8 11 19 -2 10 1 18 8 18 8 0 8 3 -1 12 -19 19 -38 17 -39 -3z"/>
<path d="M3550 6030 c0 -5 7 -7 15 -4 8 4 15 8 15 10 0 2 -7 4 -15 4 -8 0 -15
-4 -15 -10z"/>
<path d="M2779 6021 c7 -5 11 -13 7 -19 -3 -5 1 -13 10 -16 8 -3 12 -2 9 4 -3
6 0 10 7 10 8 1 6 6 -6 15 -11 8 -25 15 -30 15 -6 0 -5 -4 3 -9z"/>
<path d="M3572 6000 c0 -14 2 -19 5 -12 2 6 2 18 0 25 -3 6 -5 1 -5 -13z"/>
<path d="M196 6002 c-2 -4 4 -14 15 -20 19 -12 19 -11 9 8 -12 22 -16 24 -24
12z"/>
<path d="M2784 5851 c1 -71 -1 -128 -5 -125 -13 8 -20 -35 -9 -55 5 -11 10
-24 9 -28 -6 -36 23 -46 41 -13 9 17 8 19 -7 13 -16 -6 -16 -5 -4 10 12 15 11
17 -2 17 -9 0 -18 4 -21 9 -3 4 6 6 21 3 25 -5 26 -3 20 28 -4 18 -7 39 -7 47
0 9 -5 11 -12 7 -7 -4 -6 1 3 12 18 21 14 48 -4 37 -7 -4 -6 1 2 10 10 13 10
17 1 17 -9 0 -10 3 -1 13 6 8 8 16 5 20 -3 3 -7 16 -9 29 -16 110 -23 92 -21
-51z m36 -135 c0 -3 -4 -8 -10 -11 -5 -3 -10 -1 -10 4 0 6 5 11 10 11 6 0 10
-2 10 -4z"/>
<path d="M1340 5949 c0 -5 10 -14 23 -19 12 -5 16 -9 10 -9 -16 -1 -17 -31 -1
-31 6 0 8 3 5 7 -4 3 -2 12 5 20 8 10 8 17 0 25 -15 15 -42 19 -42 7z"/>
<path d="M3538 5933 c2 -13 8 -26 13 -28 4 -3 6 -12 2 -20 -3 -8 0 -15 7 -15
6 0 9 4 5 9 -3 6 3 14 12 20 16 9 15 11 -7 11 -14 1 -19 4 -12 7 6 2 12 9 12
14 0 6 -6 7 -12 4 -7 -4 -4 1 6 9 19 16 19 16 -5 14 -21 -2 -25 -6 -21 -25z"/>
<path d="M6626 5935 c4 -8 8 -15 10 -15 2 0 4 7 4 15 0 8 -4 15 -10 15 -5 0
-7 -7 -4 -15z"/>
<path d="M4775 5679 c-10 -30 0 -33 13 -4 6 14 7 25 2 25 -5 0 -12 -9 -15 -21z"/>
<path d="M4799 5663 c-13 -16 -12 -17 4 -4 9 7 17 15 17 17 0 8 -8 3 -21 -13z"/>
<path d="M2790 5590 c-12 -8 -11 -10 5 -10 17 0 17 -2 5 -10 -9 -6 -10 -10 -3
-10 16 0 23 13 15 27 -5 8 -13 9 -22 3z"/>
<path d="M4979 5396 c9 -10 7 -16 -5 -27 -14 -12 -14 -14 5 -21 25 -9 28 -28
5 -28 -11 0 -14 -5 -9 -17 4 -10 8 -25 10 -33 2 -8 4 -16 4 -18 1 -2 8 4 17
12 9 9 12 21 7 28 -4 7 -6 23 -4 36 1 13 -4 25 -13 28 -9 3 -13 10 -10 15 3 5
10 6 16 3 8 -5 9 -1 5 10 -4 10 -7 20 -7 22 0 2 -7 4 -16 4 -13 0 -14 -3 -5
-14z"/>
<path d="M1885 5383 c-207 -11 -503 -58 -610 -98 -94 -36 -231 -104 -249 -124
-38 -42 26 -80 174 -106 108 -19 517 -31 590 -18 l44 8 -2 132 c-1 77 3 135 8
138 6 3 10 3 10 -2 0 -4 3 -39 6 -78 3 -38 6 -95 7 -125 l3 -55 64 -3 c123 -6
450 44 584 90 129 44 170 85 130 129 -35 39 -172 81 -323 99 -84 10 -336 17
-436 13z"/>
<path d="M4980 5236 c0 -2 7 -6 15 -10 8 -3 15 -1 15 4 0 6 -7 10 -15 10 -8 0
-15 -2 -15 -4z"/>
<path d="M5001 5184 c0 -11 3 -14 6 -6 3 7 2 16 -1 19 -3 4 -6 -2 -5 -13z"/>
<path d="M5920 5190 c0 -5 -6 -10 -14 -10 -12 0 -26 -20 -26 -36 0 -3 13 4 29
15 15 11 32 17 37 13 4 -4 2 1 -5 11 -15 19 -21 21 -21 7z"/>
<path d="M4980 5146 c0 -2 7 -7 16 -10 8 -3 12 -2 9 4 -6 10 -25 14 -25 6z"/>
<path d="M5900 5146 c0 -3 4 -16 10 -31 7 -18 7 -24 -1 -20 -13 9 -8 -27 6
-37 15 -11 26 2 20 22 -4 12 1 23 12 30 11 7 12 10 3 7 -20 -6 -45 19 -27 26
7 3 4 6 -5 6 -10 1 -18 -1 -18 -3z"/>
<path d="M854 5089 c3 -24 8 -65 11 -91 6 -44 4 -49 -19 -59 -19 -9 -32 -9
-55 1 -26 10 -30 18 -33 53 -5 76 -23 39 -26 -55 -3 -89 -2 -94 22 -113 18
-14 29 -36 35 -69 5 -27 15 -52 22 -57 19 -11 21 -6 8 30 -9 27 -9 36 4 48 11
12 19 12 35 4 16 -8 22 -25 27 -76 4 -36 5 -84 1 -106 -4 -23 -1 -61 8 -92 7
-29 19 -142 25 -252 12 -217 22 -313 52 -505 12 -76 19 -176 19 -257 0 -210
39 -409 88 -449 17 -14 27 -35 32 -67 4 -26 5 -49 2 -52 -8 -8 -156 -6 -282 5
-63 5 -230 14 -370 19 -140 6 -301 13 -357 16 l-103 5 0 -168 0 -169 103 -21
c57 -12 126 -22 154 -22 57 0 165 -13 338 -40 66 -10 191 -26 277 -36 87 -10
163 -21 170 -25 21 -13 35 -198 22 -282 -6 -38 -7 -38 -42 -33 -412 62 -649
113 -884 189 l-138 45 0 -814 0 -813 23 5 c45 11 97 12 103 3 3 -5 9 -7 14 -4
5 3 11 1 15 -5 4 -6 11 -8 16 -5 5 4 9 1 9 -4 0 -6 7 -11 15 -11 8 0 15 -5 15
-11 0 -7 12 -9 30 -7 24 4 30 1 25 -10 -4 -12 -3 -12 9 -3 11 9 15 9 19 -1 5
-16 117 40 117 58 0 13 25 27 50 29 14 1 62 -27 87 -51 7 -7 18 -30 25 -53 7
-23 16 -41 20 -41 5 0 8 -6 8 -12 0 -7 19 -33 41 -58 69 -76 89 -114 89 -169
0 -55 -10 -67 -40 -51 -11 6 -39 13 -62 16 -77 9 -170 38 -179 57 -5 9 -15 17
-22 17 -16 0 -67 23 -67 30 0 3 -20 4 -45 2 -28 -3 -52 1 -61 9 -9 7 -22 14
-29 15 -77 11 -98 12 -125 3 -17 -6 -46 -25 -64 -41 l-34 -30 -1 -127 c-1 -92
2 -122 10 -111 8 11 12 12 16 2 2 -6 9 -10 14 -6 5 3 9 -2 9 -10 0 -10 9 -16
21 -16 11 0 27 -7 35 -15 18 -17 38 -20 28 -4 -4 8 -1 8 12 1 28 -15 36 -15
45 -1 6 10 16 10 42 2 32 -10 34 -9 31 11 -2 11 -2 15 2 9 3 -7 14 -13 24 -13
10 0 26 -7 34 -16 9 -8 16 -11 16 -6 0 6 10 8 22 4 14 -3 19 -2 14 6 -4 7 -1
12 8 12 8 0 16 6 19 13 3 9 9 9 23 2 30 -17 149 -8 162 11 10 15 74 58 89 60
17 3 48 40 65 76 15 32 43 42 62 22 10 -9 25 -12 45 -8 40 8 42 -13 6 -60 -14
-18 -25 -36 -25 -40 0 -6 -38 -64 -50 -76 -3 -3 -29 -42 -57 -87 l-52 -83 99
0 c92 0 100 2 100 19 0 12 9 23 23 27 24 8 91 7 121 -2 12 -4 16 -2 12 5 -5 7
7 11 36 12 95 4 147 12 156 26 4 6 17 13 30 17 22 7 31 26 11 26 -5 0 -7 5 -4
11 4 6 13 8 21 5 8 -3 14 1 14 8 0 8 5 16 12 18 9 3 7 15 -5 46 -11 26 -13 42
-6 42 13 0 6 25 -7 26 -5 0 -16 3 -24 7 -27 10 -48 5 -42 -11 3 -10 0 -13 -9
-10 -8 3 -14 10 -14 16 0 17 -13 25 -27 16 -18 -12 -58 -13 -51 -1 3 5 -3 7
-13 5 -11 -2 -29 6 -41 19 -12 13 -26 23 -30 23 -5 0 -20 20 -35 44 l-26 43
50 6 c38 5 56 2 76 -11 14 -9 23 -11 19 -4 -5 6 -4 12 2 12 6 0 11 -3 11 -8 0
-4 9 -13 21 -20 17 -11 20 -11 13 0 -6 10 -3 9 10 -1 9 -8 34 -15 54 -16 52
-3 52 -3 53 -22 0 -12 2 -13 6 -5 4 10 8 10 19 1 8 -7 17 -9 21 -5 3 3 1 6 -6
6 -7 0 -9 5 -6 11 5 7 12 6 23 -4 10 -9 35 -14 60 -13 23 0 42 -2 42 -6 0 -7
6 -6 72 11 26 7 54 22 64 32 9 10 22 19 28 19 6 0 20 16 30 35 10 19 23 32 27
29 5 -3 9 1 9 9 0 8 16 25 35 38 19 13 35 29 35 36 0 7 9 17 20 23 11 6 20 17
20 24 0 8 14 24 31 37 17 13 45 39 63 58 17 19 39 43 49 53 9 10 18 21 19 26
5 12 65 62 76 62 6 0 13 8 16 18 3 9 18 25 33 34 58 36 68 43 74 52 4 5 11 6
17 2 6 -3 13 2 16 11 3 10 15 24 26 31 18 11 25 9 54 -13 18 -13 49 -56 70
-94 28 -50 43 -67 55 -64 9 2 25 -5 36 -16 16 -18 16 -25 6 -45 -9 -15 -11
-38 -6 -64 6 -35 4 -41 -14 -47 -12 -3 -26 -3 -32 1 -9 5 -10 -28 -5 -136 4
-79 9 -147 12 -152 3 -5 8 -39 10 -75 4 -59 2 -69 -23 -102 -15 -20 -30 -38
-34 -41 -6 -5 -69 -138 -69 -146 0 -2 80 -4 178 -4 l177 1 35 29 c19 17 40 30
47 30 6 0 16 7 21 17 8 13 23 16 73 14 35 -1 65 -4 67 -6 3 -2 -3 -12 -12 -21
-13 -13 -27 -15 -64 -10 -30 4 -43 3 -36 -4 5 -5 36 -11 69 -14 61 -4 86 -10
117 -27 10 -5 157 -9 329 -9 269 0 310 2 300 14 -10 12 -8 17 8 26 12 6 21 15
21 21 0 5 -12 -1 -27 -15 -24 -22 -28 -23 -42 -9 -20 20 -23 44 -9 61 9 10 8
16 -1 22 -8 5 -9 10 -3 14 6 3 8 15 5 26 -4 14 0 20 11 20 9 0 16 6 16 14 0 8
4 18 10 21 6 4 7 -1 3 -12 -5 -14 -3 -15 7 -6 9 8 16 7 30 -7 14 -14 18 -32
16 -79 -2 -58 5 -76 18 -48 3 6 5 3 3 -8 -1 -11 -13 -22 -27 -26 -20 -6 -21
-7 -5 -8 17 -1 17 -3 5 -11 -9 -6 -10 -10 -3 -10 6 0 15 5 18 10 4 7 12 7 25
0 10 -5 82 -10 159 -10 117 0 141 2 141 15 0 9 -6 12 -15 9 -11 -4 -13 -2 -9
9 4 12 0 14 -18 9 -22 -5 -22 -5 -5 21 20 31 21 37 6 37 -5 0 -8 -4 -5 -9 3
-5 -1 -11 -9 -14 -11 -5 -12 -1 -6 16 4 12 6 27 4 34 -2 6 1 14 6 18 7 4 7 13
-2 26 -10 17 -9 22 4 32 15 12 15 42 -1 32 -4 -2 -8 6 -7 20 0 14 3 22 8 19 5
-3 9 2 9 11 0 12 5 15 18 11 13 -5 13 -2 -4 12 -16 14 -18 20 -9 29 7 7 16 9
21 5 4 -4 4 -1 0 6 -4 6 -15 12 -24 12 -13 0 -14 2 -4 9 11 7 10 9 -3 14 -12
5 -14 11 -6 26 6 10 7 21 4 25 -3 3 -2 6 4 6 12 0 11 129 -1 149 -6 10 -5 12
3 7 9 -6 11 1 6 27 -6 31 -4 35 20 41 14 4 23 11 20 16 -4 6 -3 19 0 31 5 16
13 19 36 15 16 -2 29 -1 29 3 0 5 13 8 29 7 16 -1 27 -5 24 -10 -3 -4 5 -5 18
-1 23 8 24 7 6 -13 -11 -12 -14 -22 -8 -26 5 -4 15 2 21 11 10 15 11 15 6 1
-3 -9 2 -19 10 -22 24 -9 31 -7 14 4 -12 7 -8 10 15 11 25 0 27 2 10 8 -11 5
-24 6 -29 3 -5 -3 -6 0 -2 6 12 20 46 13 56 -10 6 -17 9 -18 9 -6 1 26 54 -30
56 -59 0 -12 -3 -19 -7 -17 -3 2 -9 0 -12 -5 -3 -5 8 -11 25 -13 16 -3 32 -1
35 4 4 5 13 7 21 4 8 -3 25 1 39 10 13 9 24 13 24 10 0 -4 9 -2 19 3 14 8 20
7 25 -5 3 -8 11 -14 18 -13 37 4 45 -1 41 -29 -3 -15 -1 -22 4 -16 4 6 26 9
48 8 22 -1 45 3 52 8 7 6 14 4 19 -4 4 -7 4 -10 -1 -6 -9 8 -35 -15 -35 -31 0
-6 -5 -11 -11 -11 -6 0 -8 -8 -5 -17 5 -16 5 -16 -6 -3 -14 17 -58 24 -58 9 0
-5 6 -8 13 -6 8 1 11 -8 9 -26 -2 -18 1 -26 7 -22 8 4 8 -2 1 -20 -14 -38 -13
-40 11 -19 20 18 21 18 34 0 10 -14 29 -19 69 -21 66 -3 97 -26 78 -56 -7 -11
-8 -20 -2 -24 6 -4 13 1 16 9 10 26 21 18 18 -12 -2 -15 -1 -19 2 -9 3 9 12
17 20 17 8 0 14 -8 14 -17 0 -16 -2 -16 -11 -3 -8 11 -9 6 -4 -20 5 -28 4 -32
-5 -20 -10 13 -11 12 -6 -3 3 -10 6 -21 6 -24 0 -3 7 0 15 7 21 17 20 -4 -1
-25 -15 -15 -14 -15 9 -10 23 6 25 4 31 -42 10 -75 10 -118 3 -130 -4 -6 -3
-14 3 -18 6 -4 8 -11 5 -16 -4 -5 546 -9 1429 -9 l1436 0 0 296 c0 194 -3 293
-10 289 -6 -3 -10 -1 -10 4 0 6 5 11 10 11 14 0 12 27 -2 33 -10 4 -10 6 0 6
9 1 12 44 12 181 0 167 -1 180 -18 180 -10 0 -24 6 -31 12 -10 11 -11 9 -5 -5
3 -10 3 -17 -2 -16 -22 4 -34 -2 -34 -16 0 -8 -12 -18 -26 -21 -18 -5 -22 -10
-14 -18 7 -7 16 -7 30 2 17 10 20 10 20 -3 0 -8 6 -15 13 -15 6 0 -1 -11 -18
-24 -25 -20 -28 -26 -16 -40 18 -21 53 -4 44 22 -6 15 -4 15 15 -2 12 -11 22
-22 22 -25 0 -12 -68 -27 -89 -19 -12 4 -21 3 -21 -2 0 -6 8 -10 18 -11 12 0
13 -2 3 -6 -8 -3 -20 2 -26 11 -7 9 -19 14 -28 10 -26 -10 2 -44 38 -45 l30
-1 -30 -7 c-37 -9 -65 4 -65 29 0 15 -7 20 -25 20 -14 0 -25 5 -25 10 0 6 9
10 20 10 14 0 18 5 13 17 -4 11 -3 14 5 9 7 -4 12 -2 12 3 0 6 7 11 16 11 11
0 14 5 10 16 -3 9 4 25 19 40 20 20 22 26 10 30 -25 10 -17 21 21 29 44 8 74
25 74 43 0 9 -7 11 -22 6 -13 -4 -25 -9 -28 -13 -9 -11 -40 -12 -40 -1 0 5 10
10 23 10 17 0 19 2 7 10 -8 5 -11 12 -7 16 3 4 14 1 22 -6 12 -10 19 -10 27
-2 7 7 22 12 35 12 19 0 23 5 23 28 0 26 -3 29 -36 30 -39 2 -58 12 -36 19 6
3 10 9 6 14 -3 5 4 9 16 9 13 0 19 4 14 12 -5 8 0 9 14 6 21 -6 22 -3 22 54 0
53 -2 59 -17 54 -17 -6 -17 -5 0 8 16 12 17 107 17 1728 l0 1716 -64 4 c-38 2
-72 10 -83 19 -20 17 -45 19 -53 4 -3 -5 4 -11 16 -13 22 -3 52 -47 40 -59 -3
-4 -25 -9 -48 -12 -35 -5 -42 -10 -43 -31 -1 -14 2 -28 8 -31 19 -13 -3 -28
-31 -20 -15 4 -34 6 -42 4 -8 -2 -4 3 10 11 14 8 25 23 26 34 1 18 -2 19 -22
10 -13 -6 -21 -15 -17 -21 7 -12 -14 -1 -39 21 -10 8 -25 12 -34 8 -9 -4 -27
1 -40 9 -26 17 -29 14 -14 -15 5 -10 24 -23 42 -30 29 -10 31 -13 13 -19 -19
-8 -19 -8 0 -19 11 -6 17 -13 14 -16 -9 -9 -50 25 -59 50 -9 22 -12 23 -37 12
-15 -6 -32 -16 -38 -21 -6 -7 -5 -7 3 -3 17 10 72 -13 72 -30 0 -22 -21 -27
-35 -8 -13 17 -14 17 -15 2 0 -21 -40 -35 -50 -17 -5 7 -3 20 3 30 9 14 9 21
0 30 -16 16 -37 1 -23 -16 12 -15 10 -36 -5 -47 -6 -4 -1 -8 9 -8 18 0 18 -1
3 -18 -10 -10 -14 -22 -10 -25 3 -4 -1 -7 -11 -7 -12 0 -15 6 -12 25 5 26 -7
41 -24 30 -8 -5 -7 -12 2 -22 11 -14 10 -15 -9 -9 -12 4 -24 2 -27 -3 -4 -5 2
-12 11 -15 10 -3 28 -22 41 -41 23 -37 19 -44 -12 -20 -10 8 -23 12 -29 8 -5
-3 -3 -9 4 -14 10 -6 10 -9 2 -9 -6 0 -15 5 -18 10 -3 6 -14 10 -23 10 -21 1
-63 65 -51 77 4 4 4 15 -1 23 -8 13 -10 12 -10 -3 0 -11 -10 -20 -30 -23 -40
-8 -59 -31 -34 -40 11 -4 22 -9 27 -11 4 -2 7 0 7 6 0 5 -10 11 -22 14 -22 3
-21 4 5 11 23 7 32 4 52 -18 29 -31 32 -46 9 -46 -8 0 -12 5 -9 10 3 6 1 10
-4 10 -6 0 -11 -6 -11 -14 0 -8 -8 -17 -17 -20 -12 -5 -13 -10 -5 -18 8 -8 15
-8 26 2 9 7 22 10 30 7 10 -4 13 -1 10 7 -4 10 2 12 19 9 34 -7 31 -33 -4 -33
-15 0 -31 -4 -34 -10 -3 -5 3 -10 14 -10 11 0 23 -4 26 -10 3 -5 0 -10 -9 -10
-8 0 -21 -3 -30 -6 -10 -4 -16 -1 -16 9 0 21 -18 31 -33 18 -8 -6 -18 -6 -27
-1 -20 13 -30 12 -30 0 0 -5 6 -10 14 -10 15 0 27 -35 19 -56 -3 -8 -9 -12
-13 -9 -5 3 -15 -2 -23 -10 -9 -8 -26 -15 -39 -15 l-23 -1 26 -22 c14 -12 29
-30 32 -40 6 -16 5 -16 -24 -1 -17 8 -37 13 -44 10 -9 -3 -12 0 -8 9 3 8 9 13
13 10 5 -3 11 -1 15 4 7 12 -71 35 -85 26 -6 -3 -10 -1 -10 4 0 6 -5 11 -10
11 -11 0 8 -40 25 -52 18 -13 -3 -19 -24 -7 -24 16 -39 5 -21 -16 10 -13 9
-15 -9 -15 -14 0 -21 6 -21 20 0 20 -12 22 -60 10 -3 0 6 -10 19 -21 29 -24
24 -31 -13 -21 -23 6 -42 1 -87 -23 -51 -26 -61 -28 -80 -17 -24 15 -41 6 -19
-9 15 -10 -2 -8 -65 7 -14 3 -12 0 7 -10 24 -15 118 -19 118 -6 0 11 80 -3 91
-16 9 -12 4 -14 -31 -14 -37 0 -41 -2 -30 -15 7 -8 21 -15 31 -15 10 0 20 -3
23 -8 2 -4 -20 -7 -51 -5 -67 2 -96 -10 -110 -46 -11 -31 -52 -45 -90 -30 -13
5 -25 4 -28 -1 -4 -7 -13 -6 -26 0 -28 16 -24 33 7 26 17 -5 23 -3 19 4 -8 13
-35 13 -55 0 -13 -8 -10 -15 18 -40 17 -17 32 -26 32 -20 0 7 6 8 18 2 9 -5
23 -7 31 -4 10 3 12 0 8 -11 -3 -9 -2 -19 3 -22 4 -3 11 1 13 7 3 7 6 9 6 3 0
-5 -4 -17 -10 -25 -8 -11 -12 -12 -16 -2 -2 6 -18 12 -35 12 -25 0 -28 -3 -23
-20 5 -15 2 -20 -10 -20 -11 0 -15 -5 -12 -15 5 -12 -4 -14 -46 -10 -29 2 -42
1 -30 -1 13 -3 21 -12 20 -24 -1 -17 -3 -17 -29 -4 -36 19 -59 18 -52 -1 4
-10 0 -15 -14 -15 -12 0 -23 -4 -26 -9 -7 -11 17 -21 50 -21 13 0 24 -4 24 -9
0 -5 -9 -7 -19 -4 -10 3 -28 0 -40 -7 -17 -9 -22 -8 -27 5 -3 8 -17 15 -29 15
-13 0 -27 5 -30 10 -3 6 -16 10 -28 10 -21 -1 -21 -1 3 -15 l25 -15 -27 6
c-18 4 -28 2 -28 -5 0 -6 8 -11 18 -11 10 0 27 -7 38 -15 18 -14 18 -15 -6
-12 -20 2 -24 -2 -22 -17 4 -19 2 -19 -22 -3 -31 21 -36 21 -36 1 0 -13 -7
-15 -30 -10 -31 6 -43 -10 -15 -20 12 -5 13 -10 4 -20 -9 -11 -8 -14 4 -14 8
0 17 7 21 15 8 21 26 19 26 -3 0 -17 -8 -19 -79 -16 -44 1 -89 7 -100 13 -30
17 -34 13 -11 -11 l21 -23 -23 -6 c-27 -7 -60 3 -66 19 -2 7 6 12 18 12 16 0
20 4 16 15 -3 8 -1 15 5 15 6 0 7 5 3 11 -4 7 -9 7 -13 2 -3 -6 -23 -9 -43 -9
-42 2 -49 -12 -18 -32 11 -7 20 -17 20 -23 0 -5 -4 -8 -9 -5 -5 3 -14 -1 -21
-9 -7 -8 -17 -12 -24 -8 -6 4 -19 9 -29 10 -14 2 -17 -1 -12 -16 6 -21 -20
-36 -48 -26 -32 13 -25 -15 8 -31 24 -11 34 -22 31 -31 -4 -8 -6 -17 -6 -19 0
-2 -15 -4 -32 -3 l-33 1 33 9 c28 8 32 12 22 24 -15 19 -44 20 -37 2 3 -9 -2
-13 -16 -12 -21 2 -38 25 -18 25 6 0 11 4 11 9 0 12 -43 1 -52 -13 -4 -5 -22
-10 -40 -10 -26 0 -34 -4 -35 -19 -2 -14 3 -18 18 -14 10 3 19 1 19 -4 0 -5
-7 -9 -16 -9 -9 0 -12 -5 -8 -12 5 -8 0 -9 -17 -5 -13 4 -46 7 -72 7 -30 0
-46 4 -42 10 3 6 0 10 -7 11 -7 0 -24 2 -38 5 -18 3 -21 2 -10 -5 8 -5 18 -7
22 -5 4 3 8 -2 8 -11 0 -9 7 -23 15 -31 8 -9 15 -11 15 -5 0 6 9 11 21 11 13
0 18 -4 13 -12 -5 -7 -2 -9 9 -5 11 4 14 2 10 -9 -6 -17 -19 -18 -29 -3 -4 8
-9 7 -15 -2 -6 -11 -11 -11 -21 -1 -15 15 -48 16 -48 0 0 -6 -11 -1 -24 11
-14 13 -22 29 -19 37 3 8 0 14 -7 14 -6 0 -9 -4 -6 -9 8 -12 -72 -43 -94 -36
-10 3 -21 1 -25 -5 -3 -5 -13 -10 -21 -10 -8 0 -13 4 -10 9 3 5 -1 11 -8 14
-8 3 -17 1 -20 -6 -3 -9 -7 -9 -13 -1 -10 13 -53 25 -53 14 0 -12 -39 -20 -46
-9 -8 14 -44 11 -41 -3 2 -13 -9 -14 -50 -4 -13 2 -25 1 -28 -4 -3 -5 -13 -6
-21 -3 -9 3 -20 0 -25 -8 -7 -11 -9 -11 -9 -1 0 9 -7 11 -22 7 -17 -6 -20 -4
-14 10 5 13 2 16 -10 11 -8 -3 -22 -6 -29 -6 -8 0 -19 -8 -24 -18 -8 -15 -4
-17 34 -19 46 -1 85 -17 85 -33 0 -6 -9 -10 -20 -10 -11 0 -20 5 -20 10 0 6
-27 10 -61 10 -60 0 -60 0 -76 -37 -9 -23 -16 -71 -17 -124 0 -48 -5 -85 -9
-82 -5 3 -6 11 -3 19 10 27 -14 22 -129 -26 -309 -131 -441 -179 -519 -189
-114 -14 -132 -2 -71 45 20 15 34 28 33 30 -2 1 -61 -6 -132 -17 -194 -28
-508 -41 -731 -30 -217 11 -277 19 -268 34 3 6 1 7 -5 3 -6 -4 -24 0 -40 8
-16 8 -58 20 -92 25 -63 10 -90 24 -76 38 8 8 77 7 189 -2 l78 -7 -6 -29 -7
-29 193 2 193 3 20 34 c18 31 18 34 3 28 -15 -5 -16 -2 -11 21 10 42 20 46 50
23 15 -11 33 -21 41 -21 8 0 29 -10 46 -22 52 -37 229 -57 345 -38 96 15 196
46 216 66 58 57 -145 125 -472 158 -163 16 -175 23 -165 89 4 29 2 37 -9 37
-9 0 -21 7 -28 15 -26 31 -119 85 -148 85 -17 0 -32 6 -36 15 -13 35 -95 0
-138 -59 -26 -36 -29 -48 -26 -101 l3 -60 -85 -6 c-122 -9 -339 -48 -380 -69
-46 -24 -105 -30 -105 -11 0 20 45 51 91 62 102 26 173 40 256 49 122 14 129
19 122 78 -4 26 -7 56 -8 67 -1 11 -4 25 -8 30 -3 6 -5 45 -4 88 1 42 -2 77
-7 77 -4 0 -5 5 -2 10 10 16 25 11 25 -9 0 -30 21 -81 31 -75 9 5 13 -8 10
-32 -1 -6 5 -11 11 -11 10 0 13 33 15 126 1 69 2 167 3 216 0 50 -1 104 -3
120 -3 17 -1 40 4 53 5 13 5 21 0 18 -5 -3 -13 13 -19 37 -13 50 -13 47 -17
167 -4 87 -6 116 -21 220 -2 19 -7 60 -10 90 -3 30 -10 60 -15 66 -4 5 -7 28
-6 50 2 21 0 49 -5 61 -4 14 -3 23 5 27 7 2 3 5 -8 6 -16 0 -17 2 -5 9 14 9
16 83 9 284 0 22 4 22 -120 -9 -269 -66 -545 -95 -895 -94 -392 1 -667 41
-764 110 l-32 23 6 -44z m6760 -348 c3 -4 3 -11 0 -14 -8 -8 -34 3 -34 14 0
11 27 12 34 0z m43 -47 c-3 -3 -12 -4 -19 -1 -8 3 -5 6 6 6 11 1 17 -2 13 -5z
m-110 -31 c3 -7 -3 -9 -17 -6 -29 8 -37 25 -9 21 12 -1 24 -8 26 -15z m-242
-94 c0 -8 -7 -13 -15 -11 -8 2 -20 -5 -28 -15 -11 -15 -14 -16 -22 -3 -8 13
-11 13 -19 1 -9 -14 -31 -7 -31 10 0 6 5 7 12 3 8 -5 9 -2 5 9 -5 13 0 16 28
15 20 -1 38 2 42 6 10 10 28 1 28 -15z m35 11 c0 -5 -2 -10 -4 -10 -3 0 -8 5
-11 10 -3 6 -1 10 4 10 6 0 11 -4 11 -10z m55 0 c3 -6 -1 -7 -9 -4 -18 7 -21
14 -7 14 6 0 13 -4 16 -10z m-250 -70 c3 -5 -1 -10 -9 -10 -9 0 -16 5 -16 10
0 6 4 10 9 10 6 0 13 -4 16 -10z m30 -30 c3 -5 2 -10 -4 -10 -5 0 -13 5 -16
10 -3 6 -2 10 4 10 5 0 13 -4 16 -10z m-70 -40 c3 -5 -1 -10 -9 -10 -9 0 -16
5 -16 10 0 6 4 10 9 10 6 0 13 -4 16 -10z m49 -16 c4 -10 1 -14 -6 -12 -15 5
-23 28 -10 28 5 0 13 -7 16 -16z m-183 -71 c12 -15 12 -16 -4 -10 -10 4 -23 7
-28 7 -6 0 -7 5 -4 10 9 15 21 12 36 -7z m29 -33 c0 -5 -2 -10 -4 -10 -3 0 -8
5 -11 10 -3 6 -1 10 4 10 6 0 11 -4 11 -10z m-90 -30 c11 -7 7 -10 -17 -10
-18 0 -33 5 -33 10 0 13 30 13 50 0z m-135 -61 c11 -17 -1 -21 -15 -4 -8 9 -8
15 -2 15 6 0 14 -5 17 -11z m-126 -45 c2 -2 -5 -4 -16 -4 -12 0 -23 7 -27 15
-5 13 -2 14 17 4 12 -6 24 -13 26 -15z m-50 -5 c13 -14 27 -20 40 -16 14 3 21
0 21 -9 0 -8 -3 -14 -7 -14 -5 0 -19 -3 -33 -7 -14 -3 -22 -2 -17 2 10 12 -22
45 -39 38 -8 -3 -14 -1 -14 5 0 9 6 13 27 21 1 1 11 -9 22 -20z m105 -11 c-5
-7 -2 -9 7 -6 8 3 24 -1 34 -9 19 -14 17 -14 -15 -8 -19 4 -42 13 -50 21 -12
12 -11 14 8 14 15 0 21 -4 16 -12z m-29 -42 c-11 -7 -36 -16 -55 -20 l-35 -7
40 20 c47 24 80 29 50 7z m-152 -78 c-5 -22 -5 -22 9 -4 8 10 21 16 29 13 10
-4 8 -6 -5 -6 -15 -1 -16 -4 -6 -16 11 -13 8 -14 -19 -11 -41 5 -46 10 -26 30
22 21 24 20 18 -6z m152 12 c3 -5 2 -10 -4 -10 -5 0 -13 5 -16 10 -3 6 -2 10
4 10 5 0 13 -4 16 -10z m-199 -58 c-22 -5 -30 3 -21 18 5 8 11 7 22 -2 15 -12
14 -13 -1 -16z m104 8 c0 -5 -4 -10 -9 -10 -5 0 -18 -3 -28 -6 -16 -5 -16 -4
1 10 23 18 36 20 36 6z m33 -4 c4 -10 1 -13 -8 -9 -8 3 -12 9 -9 14 7 12 11
11 17 -5z m-157 -32 c18 -14 18 -14 -6 -3 -31 14 -36 19 -24 19 6 0 19 -7 30
-16z m-3816 -24 c0 -5 -4 -10 -10 -10 -5 0 -10 5 -10 10 0 6 5 10 10 10 6 0
10 -4 10 -10z m3694 -39 c4 -5 -3 -7 -14 -4 -23 6 -26 13 -6 13 8 0 17 -4 20
-9z m36 -16 c11 -13 10 -14 -4 -9 -9 3 -16 10 -16 15 0 13 6 11 20 -6z m-3705
-45 c3 -5 -1 -10 -10 -10 -9 0 -13 5 -10 10 3 6 8 10 10 10 2 0 7 -4 10 -10z
m3509 -19 c3 -5 -3 -11 -13 -14 -14 -3 -18 -1 -14 9 6 16 19 18 27 5z m-3504
-37 c0 -14 -4 -23 -10 -19 -5 3 -10 15 -10 26 0 10 5 19 10 19 6 0 10 -12 10
-26z m3570 -4 c0 -5 -7 -10 -16 -10 -8 0 -12 5 -9 10 3 6 10 10 16 10 5 0 9
-4 9 -10z m-170 -54 c0 -2 -13 -6 -29 -8 -17 -2 -28 -1 -25 4 5 8 54 12 54 4z
m125 -14 c-3 -3 -11 0 -18 7 -9 10 -8 11 6 5 10 -3 15 -9 12 -12z m-70 -2 c3
-5 2 -10 -4 -10 -5 0 -13 5 -16 10 -3 6 -2 10 4 10 5 0 13 -4 16 -10z m-105
-24 c0 -2 -7 -6 -15 -10 -8 -3 -15 -1 -15 4 0 6 7 10 15 10 8 0 15 -2 15 -4z
m-46 -22 c3 -8 2 -12 -4 -9 -6 3 -10 10 -10 16 0 14 7 11 14 -7z m-164 -33 c0
-6 -4 -13 -10 -16 -5 -3 -10 1 -10 9 0 9 5 16 10 16 6 0 10 -4 10 -9z m-31
-25 c9 -11 9 -14 -1 -13 -36 1 -58 -4 -58 -14 0 -6 7 -8 16 -5 8 3 12 2 9 -4
-4 -6 -23 -7 -47 -3 -30 4 -39 3 -34 -5 5 -8 -1 -12 -16 -13 -13 0 -17 -3 -10
-6 6 -2 12 -12 12 -21 -1 -13 -6 -10 -23 11 -13 15 -28 27 -35 27 -15 0 -16
22 -1 37 8 8 19 9 38 2 17 -7 27 -7 29 0 2 6 10 11 18 11 8 0 11 -6 8 -15 -8
-20 3 -18 46 5 19 11 36 19 36 20 1 0 7 -6 13 -14z m-309 -97 c0 -5 -4 -9 -10
-9 -5 0 -10 7 -10 16 0 8 5 12 10 9 6 -3 10 -10 10 -16z m156 2 c-3 -5 -15 -7
-26 -4 -28 7 -25 13 6 13 14 0 23 -4 20 -9z m-186 -25 c0 -2 -7 -6 -15 -10 -8
-3 -15 -1 -15 4 0 6 7 10 15 10 8 0 15 -2 15 -4z m-314 -51 c-19 -15 -46 -20
-46 -10 0 6 40 24 55 24 6 0 1 -6 -9 -14z m379 5 c3 -5 -3 -10 -14 -10 -11 0
-23 5 -26 10 -3 6 3 10 14 10 11 0 23 -4 26 -10z m-131 -6 c28 -11 17 -24 -20
-24 -31 0 -35 2 -24 15 14 17 21 18 44 9z m-2378 -117 c4 -4 15 -7 24 -7 20 0
23 -35 4 -51 -12 -9 -22 -8 -49 7 -19 10 -35 23 -35 29 0 26 38 41 56 22z
m164 -126 c0 -12 -26 -32 -33 -25 -9 10 4 34 19 34 8 0 14 -4 14 -9z m1374
-273 c3 -13 7 -45 10 -73 2 -27 9 -81 15 -120 30 -183 38 -240 35 -244 -4 -5
-437 56 -506 70 -26 6 -48 14 -48 18 0 5 -22 6 -48 3 -69 -6 -158 14 -177 41
-13 18 -15 19 -15 4 0 -18 -7 -20 -55 -17 -40 2 -200 29 -247 41 -43 11 -51
29 -12 29 28 0 190 44 242 66 46 19 51 18 58 -11 11 -44 24 -46 123 -25 50 11
113 29 139 39 98 39 192 82 255 116 36 19 75 35 88 35 13 0 47 11 74 24 63 31
64 31 69 4z m-794 -13 c0 -8 -9 -15 -20 -15 -20 0 -26 11 -13 23 12 13 33 7
33 -8z m-20 -620 c7 -9 8 -15 2 -15 -5 0 -12 7 -16 15 -3 8 -4 15 -2 15 2 0 9
-7 16 -15z m-130 -36 c0 -5 -4 -9 -10 -9 -5 0 -10 7 -10 16 0 8 5 12 10 9 6
-3 10 -10 10 -16z m180 0 c0 -5 -7 -9 -15 -9 -15 0 -20 12 -9 23 8 8 24 -1 24
-14z m-246 -5 c22 -8 20 -41 -1 -47 -10 -3 1 -5 24 -6 23 0 45 4 49 10 3 6 17
9 31 6 17 -3 28 1 36 14 14 23 57 26 57 4 0 -18 4 -19 31 -2 17 10 22 9 35 -8
13 -18 13 -21 -3 -27 -52 -20 -736 -85 -799 -75 -22 3 -18 4 14 6 23 0 42 5
42 11 0 5 7 7 15 4 8 -4 15 -1 15 5 0 6 9 11 19 11 11 0 23 5 26 10 3 6 15 10
26 10 10 0 19 4 19 9 0 8 37 5 69 -5 11 -4 10 -8 -5 -19 -17 -13 -15 -14 26
-14 25 1 56 5 70 9 24 8 21 10 -28 15 -52 5 -41 25 20 36 24 4 63 13 87 20 38
10 45 10 53 -4 12 -22 40 -10 33 14 -7 20 8 25 39 13z m394 -6 c-6 -18 -22
-20 -43 -3 -19 14 -18 14 13 15 22 0 32 -4 30 -12z m-1071 -134 c-3 -3 -12 -4
-19 -1 -8 3 -5 6 6 6 11 1 17 -2 13 -5z m1802 -118 c-1 -46 2 -90 6 -98 6 -10
5 -10 -5 -1 -10 10 -22 2 -59 -36 -43 -44 -50 -48 -107 -54 -34 -4 -81 -13
-105 -21 -88 -29 -219 -25 -219 7 0 6 -2 8 -5 5 -3 -3 -32 0 -65 7 -61 13
-139 6 -193 -16 -15 -6 -31 -9 -34 -5 -4 3 7 39 23 78 25 62 33 73 59 80 17 4
178 35 360 68 181 34 331 63 334 66 10 10 11 0 10 -80z m-3985 -45 c3 -4 -6
-6 -19 -3 -14 2 -25 6 -25 8 0 8 39 4 44 -5z m43 -7 c-3 -3 -12 -4 -19 -1 -8
3 -5 6 6 6 11 1 17 -2 13 -5z m3958 -73 c3 -5 1 -12 -5 -16 -5 -3 -10 1 -10 9
0 18 6 21 15 7z m-1190 -38 c-9 -21 -22 -45 -30 -53 -8 -9 -15 -20 -15 -25 0
-5 -7 -15 -15 -24 -9 -9 -43 -52 -77 -96 -34 -44 -75 -93 -92 -108 -17 -16
-25 -26 -18 -22 20 10 13 -3 -8 -15 -16 -9 -18 -8 -14 5 4 10 2 13 -8 10 -11
-5 -15 3 -14 32 1 35 -1 38 -26 37 -15 0 -25 4 -22 8 3 4 0 8 -6 8 -7 0 -10 6
-7 14 3 7 2 17 -3 22 -8 9 -16 58 -26 162 l-5 52 43 1 c24 0 88 6 143 13 55 7
126 14 158 15 l57 1 -15 -37z m1195 -28 c0 -5 -5 -3 -10 5 -5 8 -10 20 -10 25
0 6 5 3 10 -5 5 -8 10 -19 10 -25z m-2252 8 c111 -3 201 -7 200 -9 -2 -1 -16
-4 -33 -7 -52 -9 -128 -38 -161 -63 -17 -13 -35 -24 -40 -24 -6 0 -16 -6 -22
-12 -7 -7 -16 -13 -20 -13 -16 -1 -52 -31 -52 -43 0 -7 -4 -10 -10 -7 -5 3
-10 1 -10 -4 0 -6 -9 -11 -19 -11 -27 0 -34 -15 -19 -39 7 -11 9 -23 6 -27
-11 -10 -28 6 -28 27 0 10 -6 19 -13 19 -22 0 -197 191 -197 215 0 7 177 6
418 -2z m2253 -90 c-12 -20 -14 -14 -5 12 4 9 9 14 11 11 3 -2 0 -13 -6 -23z
m-2406 -197 c17 -17 7 -30 -12 -15 -13 12 -18 29 -7 29 3 0 12 -6 19 -14z
m5365 -107 c0 -6 -4 -7 -10 -4 -5 3 -10 11 -10 16 0 6 5 7 10 4 6 -3 10 -11
10 -16z m-80 -39 c0 -5 -2 -10 -4 -10 -3 0 -8 5 -11 10 -3 6 -1 10 4 10 6 0
11 -4 11 -10z m-3878 -56 c17 -33 15 -69 -4 -58 -5 3 -12 -4 -15 -15 -3 -12
-18 -28 -34 -37 -16 -8 -29 -19 -29 -25 0 -13 -94 -54 -142 -62 -33 -5 -36 -4
-33 16 9 45 80 170 112 196 62 50 115 45 145 -15z m3986 34 c-3 -7 -12 -14
-22 -14 -13 -2 -13 -1 -1 3 8 2 13 9 10 14 -4 5 -1 9 5 9 7 0 10 -6 8 -12z
m-4997 -13 c19 -3 37 -13 42 -21 4 -8 13 -14 19 -14 6 0 5 7 -3 17 -13 15 -12
15 7 5 12 -6 25 -8 29 -4 4 4 2 -3 -4 -15 -8 -15 -8 -23 -1 -23 5 0 10 -12 10
-26 0 -14 -4 -23 -10 -19 -5 3 -10 -4 -10 -16 0 -18 -2 -20 -16 -9 -12 11 -15
11 -12 -1 2 -8 -4 -13 -14 -13 -10 1 -19 -8 -22 -22 -4 -13 -10 -23 -14 -21
-4 1 -22 -14 -41 -33 l-33 -35 -60 65 c-67 73 -112 135 -122 167 -7 21 -5 21
99 20 58 -1 105 2 105 6 0 5 4 6 8 3 5 -3 24 -8 43 -11z m4923 4 c-3 -5 -11
-9 -19 -9 -8 0 -16 4 -19 9 -3 5 5 9 19 9 14 0 22 -4 19 -9z m-127 -26 c-4 -3
-2 -12 4 -20 18 -21 4 -15 -16 7 -17 19 -17 20 0 20 10 0 15 -3 12 -7z m123 3
c0 -2 -9 -6 -20 -9 -11 -3 -20 -1 -20 4 0 5 9 9 20 9 11 0 20 -2 20 -4z m30 0
c0 -3 -4 -8 -10 -11 -5 -3 -10 -1 -10 4 0 6 5 11 10 11 6 0 10 -2 10 -4z
m-250 -26 c9 -16 8 -18 -5 -14 -8 3 -13 10 -10 14 3 5 -1 11 -7 13 -10 4 -10
6 -1 6 7 1 17 -8 23 -19z m50 -10 c0 -5 -5 -10 -11 -10 -5 0 -7 5 -4 10 3 6 8
10 11 10 2 0 4 -4 4 -10z m27 -12 c-3 -8 -6 -5 -6 6 -1 11 2 17 5 13 3 -3 4
-12 1 -19z m133 7 c0 -8 -4 -15 -9 -15 -13 0 -22 16 -14 24 11 11 23 6 23 -9z
m65 5 c3 -5 -1 -10 -9 -10 -9 0 -16 5 -16 10 0 6 4 10 9 10 6 0 13 -4 16 -10z
m-4850 -20 c3 -5 1 -10 -4 -10 -6 0 -11 5 -11 10 0 6 2 10 4 10 3 0 8 -4 11
-10z m4708 -4 c10 -8 17 -22 15 -33 -2 -12 3 -18 17 -18 11 0 19 6 17 13 -4
21 15 4 21 -18 3 -11 1 -18 -4 -14 -5 3 -9 1 -9 -5 0 -5 10 -12 23 -14 19 -4
18 -4 -5 -6 -22 -1 -26 -5 -21 -18 6 -15 4 -14 -14 2 -11 11 -23 29 -25 40 -2
11 -10 21 -18 21 -8 1 -20 2 -26 3 -11 1 -7 61 5 61 3 0 14 -7 24 -14z m125
-17 c-7 -5 -21 -9 -31 -9 -14 0 -15 3 -5 13 7 8 21 12 31 9 15 -4 16 -7 5 -13z
m-298 -9 c0 -5 -2 -10 -4 -10 -3 0 -8 5 -11 10 -3 6 -1 10 4 10 6 0 11 -4 11
-10z m-3299 -27 c12 -14 12 -15 0 -9 -10 7 -12 3 -6 -15 7 -23 7 -23 -8 -4 -8
10 -13 25 -10 32 7 17 8 16 24 -4z m39 -13 c0 -5 -5 -10 -11 -10 -5 0 -7 5 -4
10 3 6 8 10 11 10 2 0 4 -4 4 -10z m3250 0 c0 -5 -9 -10 -21 -10 -11 0 -17 5
-14 10 3 6 13 10 21 10 8 0 14 -4 14 -10z m-3190 -10 c-18 -12 -30 -13 -30 -2
0 4 10 9 22 9 18 2 20 0 8 -7z m3322 -2 c-9 -9 -15 -9 -24 0 -9 9 -7 12 12 12
19 0 21 -3 12 -12z m-92 -8 c0 -5 -8 -10 -17 -10 -15 0 -16 2 -3 10 19 12 20
12 20 0z m-6445 -27 c11 -6 29 -9 40 -7 10 1 25 -2 32 -8 7 -6 22 -8 32 -5 17
4 18 2 8 -14 -8 -13 -13 -15 -19 -6 -5 8 -8 6 -8 -6 0 -17 -18 -57 -31 -67 -3
-3 -10 -18 -14 -35 -5 -16 -9 -32 -10 -35 -1 -3 -9 -22 -18 -44 -9 -21 -17
-42 -17 -47 0 -5 -4 -9 -8 -9 -5 0 -14 -11 -20 -24 -15 -34 -44 -66 -59 -66
-7 0 -13 -4 -13 -9 0 -21 -41 0 -77 39 -53 58 -71 98 -79 168 -6 56 -5 60 17
67 12 4 32 17 43 29 25 25 49 41 93 61 17 8 35 19 38 25 7 12 41 9 70 -7z
m6302 1 c-3 -3 -12 -4 -19 -1 -8 3 -5 6 6 6 11 1 17 -2 13 -5z m160 0 c-3 -3
-12 -4 -19 -1 -8 3 -5 6 6 6 11 1 17 -2 13 -5z m117 -4 c14 0 17 -6 14 -24 -4
-21 -1 -25 20 -28 33 -4 40 -25 10 -30 -13 -2 -23 -10 -23 -18 0 -20 -15 -30
-47 -30 -21 0 -28 5 -28 19 0 21 23 45 33 34 4 -3 7 -1 7 5 0 7 -5 12 -11 12
-8 0 -8 5 1 15 7 8 9 15 4 15 -5 0 -2 5 6 11 13 9 12 10 -2 5 -22 -7 -48 2
-48 16 0 6 10 8 23 4 12 -3 30 -6 41 -6z m139 -10 c14 0 30 -7 37 -15 11 -13
8 -15 -14 -15 -14 0 -26 5 -26 10 0 6 -7 10 -15 10 -9 0 -12 -6 -9 -15 7 -18
-7 -20 -24 -3 -9 9 -12 9 -12 -1 0 -7 -5 -9 -11 -6 -7 5 -5 13 5 24 9 10 13
21 9 26 -5 4 2 3 14 -4 12 -6 33 -11 46 -11z m-523 0 c0 -5 -2 -10 -4 -10 -3
0 -8 5 -11 10 -3 6 -1 10 4 10 6 0 11 -4 11 -10z m200 0 c0 -5 -10 -10 -22 -9
-22 0 -22 1 -3 9 11 5 21 9 23 9 1 1 2 -3 2 -9z m-6630 -35 c0 -2 -7 -5 -15
-9 -9 -3 -15 0 -15 9 0 9 6 12 15 9 8 -4 15 -7 15 -9z m6357 -1 c-3 -3 -12 -4
-19 -1 -8 3 -5 6 6 6 11 1 17 -2 13 -5z m103 2 c0 -9 -30 -14 -35 -6 -4 6 3
10 14 10 12 0 21 -2 21 -4z m111 -31 c0 -5 2 -20 3 -32 2 -18 -2 -23 -20 -23
-14 0 -25 -8 -29 -20 -3 -11 -11 -20 -16 -20 -6 0 -7 5 -3 11 3 6 0 15 -7 20
-11 7 -11 9 -1 9 7 0 19 6 26 13 11 10 10 15 -1 25 -7 7 -12 16 -9 20 6 11 56
8 57 -3z m-101 -26 c0 -12 -47 -12 -55 0 -6 11 23 20 43 13 6 -2 12 -8 12 -13z
m175 3 c11 -8 35 -48 35 -58 0 -3 -7 -4 -14 -1 -11 4 -13 1 -9 -10 5 -12 3
-14 -7 -8 -8 5 -11 3 -8 -6 3 -8 11 -13 17 -11 6 1 11 -6 11 -16 0 -14 8 -18
36 -18 32 0 34 1 15 10 -28 12 -27 23 5 29 18 3 24 1 20 -9 -3 -7 -1 -16 4
-19 20 -13 9 -24 -27 -27 -25 -2 -37 -8 -35 -16 1 -8 -2 -11 -8 -7 -6 4 -10
-4 -10 -19 0 -14 -4 -26 -10 -26 -5 0 -10 -7 -10 -15 0 -9 9 -14 24 -13 17 2
23 7 21 20 -5 22 18 24 35 3 10 -12 9 -15 -5 -15 -13 0 -15 -3 -6 -13 8 -11 5
-17 -13 -27 -21 -11 -28 -10 -50 6 -24 18 -36 54 -17 54 5 0 14 14 20 31 14
40 14 39 -5 39 -11 0 -14 6 -9 20 4 13 1 22 -10 26 -11 5 -13 10 -5 19 8 10 7
16 -7 24 -14 8 -15 11 -3 11 12 0 10 4 -4 15 -11 8 -14 15 -7 15 7 0 9 5 6 10
-7 12 15 13 30 2z m100 -12 c3 -5 1 -10 -4 -10 -6 0 -11 5 -11 10 0 6 2 10 4
10 3 0 8 -4 11 -10z m125 0 c0 -5 -4 -10 -10 -10 -5 0 -10 5 -10 10 0 6 5 10
10 10 6 0 10 -4 10 -10z m-510 -40 c0 -11 -2 -20 -4 -20 -2 0 -6 9 -9 20 -3
11 -1 20 4 20 5 0 9 -9 9 -20z m119 6 c-15 -13 -49 -25 -49 -17 0 5 8 12 18
14 24 6 36 8 31 3z m291 -6 c0 -5 -8 -10 -17 -10 -15 0 -16 2 -3 10 19 12 20
12 20 0z m-4602 -35 c0 -23 -4 -25 -49 -25 -37 0 -49 -4 -49 -15 0 -8 -4 -15
-8 -15 -7 0 -42 52 -42 64 0 3 24 7 53 9 28 2 62 4 73 5 17 2 22 -4 22 -23z
m4676 16 c7 -11 -22 -23 -36 -15 -6 4 -5 10 3 15 18 11 26 11 33 0z m116 -18
c0 -13 -3 -13 -15 -3 -8 7 -12 16 -9 21 8 13 24 1 24 -18z m-353 11 c-3 -3
-12 -4 -19 -1 -8 3 -5 6 6 6 11 1 17 -2 13 -5z m-146 -31 c8 -9 9 -14 2 -10
-6 4 -13 1 -16 -5 -2 -7 -7 -10 -11 -7 -6 5 2 39 9 39 1 0 9 -8 16 -17z m109
7 c0 -5 -10 -10 -22 -9 -22 0 -22 1 -3 9 11 5 21 9 23 9 1 1 2 -3 2 -9z m40 0
c0 -5 -4 -10 -10 -10 -5 0 -10 5 -10 10 0 6 5 10 10 10 6 0 10 -4 10 -10z
m-35 -30 c3 -5 1 -10 -4 -10 -6 0 -11 5 -11 10 0 6 2 10 4 10 3 0 8 -4 11 -10z
m-210 -20 c3 -5 1 -10 -4 -10 -6 0 -11 5 -11 10 0 6 2 10 4 10 3 0 8 -4 11
-10z m145 -15 c0 -19 -5 -25 -22 -25 -21 1 -21 2 -5 11 9 5 17 17 17 24 0 8 2
15 5 15 3 0 5 -11 5 -25z m-3844 -46 c20 -40 18 -95 -6 -119 -30 -30 -41 -24
-39 18 3 45 -9 102 -25 121 -8 11 -8 15 2 18 6 3 9 9 6 15 -4 5 6 2 20 -7 15
-10 34 -31 42 -46z m3623 47 c10 -12 8 -13 -8 -9 -12 3 -18 9 -15 14 7 12 10
11 23 -5z m301 4 c0 -5 -2 -10 -4 -10 -3 0 -8 5 -11 10 -3 6 -1 10 4 10 6 0
11 -4 11 -10z m180 0 c0 -5 -2 -10 -4 -10 -3 0 -8 5 -11 10 -3 6 -1 10 4 10 6
0 11 -4 11 -10z m-7280 -35 c0 -8 -2 -15 -4 -15 -2 0 -6 7 -10 15 -3 8 -1 15
4 15 6 0 10 -7 10 -15z m6848 -24 c3 -8 0 -11 -7 -7 -6 4 -11 2 -11 -3 0 -6
-5 -11 -11 -11 -6 0 -9 6 -6 14 3 8 1 17 -6 20 -7 3 -1 4 12 3 14 -1 26 -8 29
-16z m212 -7 c0 -9 -5 -14 -12 -12 -18 6 -21 28 -4 28 9 0 16 -7 16 -16z m378
-55 c-2 -6 15 -17 37 -24 l40 -13 -40 2 c-21 2 -41 8 -43 14 -3 9 -9 9 -24 1
-11 -6 -23 -8 -26 -4 -3 3 4 8 16 12 12 3 22 9 22 14 0 5 5 9 10 9 6 0 9 -5 8
-11z m-3264 -48 c4 -5 -3 -7 -14 -4 -23 6 -26 13 -6 13 8 0 17 -4 20 -9z
m3140 -7 c6 -15 4 -15 -10 -3 -14 11 -18 11 -21 1 -5 -13 -23 -7 -23 9 0 16
48 10 54 -7z m-74 -22 c-12 -2 -29 0 -38 3 -15 6 -15 8 3 15 11 4 28 2 38 -4
17 -10 16 -11 -3 -14z m110 14 c0 -3 -4 -8 -10 -11 -5 -3 -10 -1 -10 4 0 6 5
11 10 11 6 0 10 -2 10 -4z m-265 -35 c-6 -5 -25 10 -25 20 0 5 6 4 14 -3 8 -7
12 -15 11 -17z m-2975 -13 c0 -12 -3 -18 -7 -14 -11 10 -12 36 -2 36 5 0 9
-10 9 -22z m3167 8 c-3 -7 -1 -18 4 -23 5 -5 2 -9 -9 -10 -13 -1 -18 5 -16 20
3 28 2 27 15 27 6 0 9 -6 6 -14z m-2902 -56 c3 -6 -1 -7 -9 -4 -18 7 -21 14
-7 14 6 0 13 -4 16 -10z m75 1 c0 -5 -9 -7 -20 -4 -11 3 -20 7 -20 9 0 2 9 4
20 4 11 0 20 -4 20 -9z m-1870 -47 c0 -2 -7 -4 -15 -4 -8 0 -15 4 -15 10 0 5
7 7 15 4 8 -4 15 -8 15 -10z m-2709 -123 c-11 -7 -9 -10 8 -16 22 -7 27 -20
11 -30 -5 -3 -10 -2 -10 4 0 6 -6 8 -14 5 -9 -3 -13 2 -11 18 3 29 3 28 18 28
9 0 8 -3 -2 -9z m39 -1 c0 -5 -2 -10 -4 -10 -3 0 -8 5 -11 10 -3 6 -1 10 4 10
6 0 11 -4 11 -10z m503 -202 c4 -14 2 -16 -6 -10 -7 6 -32 8 -57 6 l-45 -3 28
24 c23 21 31 23 51 13 14 -6 27 -19 29 -30z"/>
<path d="M4310 2770 c0 -5 7 -10 15 -10 8 0 15 5 15 10 0 6 -7 10 -15 10 -8 0
-15 -4 -15 -10z"/>
<path d="M3430 2195 c0 -8 7 -15 15 -15 8 0 15 4 15 9 0 5 -7 11 -15 15 -9 3
-15 0 -15 -9z"/>
<path d="M3490 2190 c0 -5 5 -10 11 -10 5 0 7 5 4 10 -3 6 -8 10 -11 10 -2 0
-4 -4 -4 -10z"/>
<path d="M3151 1604 c0 -11 3 -14 6 -6 3 7 2 16 -1 19 -3 4 -6 -2 -5 -13z"/>
<path d="M525 250 c-3 -6 1 -7 9 -4 18 7 21 14 7 14 -6 0 -13 -4 -16 -10z"/>
<path d="M4990 5090 c0 -5 5 -10 11 -10 5 0 7 5 4 10 -3 6 -8 10 -11 10 -2 0
-4 -4 -4 -10z"/>
<path d="M2769 5080 c-9 -5 -20 -26 -23 -45 -8 -39 10 -153 26 -172 6 -7 8
-13 4 -13 -3 0 0 -15 8 -34 8 -19 12 -37 8 -40 -3 -3 0 -6 6 -6 7 0 12 17 12
45 0 33 4 45 14 45 8 0 17 -4 20 -9 3 -5 19 -11 35 -13 27 -4 33 0 53 39 l23
43 -23 44 c-23 43 -24 44 -50 30 -57 -29 -82 -15 -82 47 0 16 -5 29 -11 29 -5
0 -7 5 -4 10 8 12 5 12 -16 0z"/>
<path d="M4999 5018 c-6 -12 -4 -48 2 -48 5 0 9 11 9 25 0 21 -6 33 -11 23z"/>
<path d="M7646 4963 c-11 -11 -6 -23 9 -23 8 0 15 4 15 9 0 13 -16 22 -24 14z"/>
<path d="M4995 4930 c-3 -5 1 -10 10 -10 9 0 13 5 10 10 -3 6 -8 10 -10 10 -2
0 -7 -4 -10 -10z"/>
<path d="M7626 4885 c16 -13 17 -16 4 -25 -12 -8 -13 -10 -1 -10 8 0 23 -7 33
-17 16 -15 18 -15 18 0 0 20 -43 67 -61 67 -8 0 -5 -6 7 -15z"/>
<path d="M7498 4863 c7 -3 16 -2 19 1 4 3 -2 6 -13 5 -11 0 -14 -3 -6 -6z"/>
<path d="M7530 4861 c0 -5 7 -12 16 -15 9 -4 14 -13 10 -21 -4 -11 3 -19 20
-25 31 -12 50 -4 34 15 -7 8 -9 19 -6 24 4 5 1 13 -6 17 -18 12 -68 15 -68 5z"/>
<path d="M5002 4795 c0 -16 2 -22 5 -12 2 9 2 23 0 30 -3 6 -5 -1 -5 -18z"/>
<path d="M7272 4791 c4 -13 18 -16 19 -4 0 4 -5 9 -11 12 -7 2 -11 -2 -8 -8z"/>
<path d="M7330 4790 c0 -5 5 -10 10 -10 6 0 10 5 10 10 0 6 -4 10 -10 10 -5 0
-10 -4 -10 -10z"/>
<path d="M7400 4781 c0 -6 5 -13 10 -16 6 -3 10 -10 10 -14 0 -7 -9 -9 -42
-12 -20 -1 -74 7 -85 14 -5 3 -15 2 -22 -2 -9 -6 -5 -13 15 -26 14 -9 29 -13
33 -9 7 11 44 12 52 1 8 -11 99 4 99 17 0 22 -31 56 -51 56 -10 0 -19 -4 -19
-9z"/>
<path d="M7160 4754 c0 -8 5 -12 10 -9 6 4 8 11 5 16 -9 14 -15 11 -15 -7z"/>
<path d="M7486 4762 c-3 -6 -1 -14 5 -17 15 -10 25 3 12 16 -7 7 -13 7 -17 1z"/>
<path d="M7216 4735 c-3 -8 -1 -15 4 -15 6 0 10 7 10 15 0 8 -2 15 -4 15 -2 0
-6 -7 -10 -15z"/>
<path d="M700 4649 c0 -5 5 -7 10 -4 6 3 10 8 10 11 0 2 -4 4 -10 4 -5 0 -10
-5 -10 -11z"/>
<path d="M7083 4641 c-25 -21 -29 -31 -13 -31 12 0 50 32 50 42 0 13 -13 9
-37 -11z"/>
<path d="M549 4507 c-54 -50 -108 -101 -121 -112 -49 -41 -213 -193 -319 -297
l-109 -106 0 -142 0 -141 42 26 c46 28 323 167 453 227 119 54 115 49 125 158
13 148 33 480 28 480 -2 0 -46 -42 -99 -93z"/>
<path d="M7040 4510 c0 -5 5 -10 10 -10 6 0 10 5 10 10 0 6 -4 10 -10 10 -5 0
-10 -4 -10 -10z"/>
<path d="M6856 4501 c-9 -15 -8 -16 21 -25 12 -4 24 -2 29 5 5 8 3 9 -5 5 -7
-5 -18 -1 -25 10 -10 12 -15 14 -20 5z"/>
<path d="M3406 4433 c-19 -101 -19 -114 5 -139 12 -13 30 -24 38 -24 9 0 35
-7 59 -15 23 -8 70 -18 104 -21 53 -5 60 -4 55 10 -14 36 40 97 112 127 7 3
-39 13 -104 22 -64 10 -147 29 -184 42 -38 14 -71 25 -74 25 -3 0 -8 -12 -11
-27z"/>
<path d="M6820 4451 c0 -5 7 -12 16 -15 24 -9 28 -7 14 9 -14 17 -30 20 -30 6z"/>
<path d="M6702 4433 c-26 -5 -20 -23 9 -23 10 0 19 7 19 15 0 8 -1 14 -2 14
-2 -1 -13 -4 -26 -6z"/>
<path d="M6762 4418 c-16 -16 -15 -28 2 -28 8 0 16 7 20 15 3 8 13 15 22 15
12 0 15 -6 10 -26 -6 -22 -4 -25 12 -20 11 4 24 0 32 -9 7 -8 19 -15 27 -15
21 0 -7 37 -46 61 -36 22 -62 24 -79 7z"/>
<path d="M6710 4380 c0 -5 10 -10 23 -10 18 0 19 2 7 10 -19 13 -30 13 -30 0z"/>
<path d="M6778 4360 c29 -28 28 -36 -3 -16 -13 9 -28 16 -32 16 -4 0 -1 -5 7
-10 13 -9 13 -10 0 -11 -8 0 -2 -5 15 -10 38 -11 66 11 45 35 -7 9 -22 16 -33
16 -21 0 -21 0 1 -20z"/>
<path d="M6568 4363 c6 -2 18 -2 25 0 6 3 1 5 -13 5 -14 0 -19 -2 -12 -5z"/>
<path d="M2888 4305 c-19 -25 -23 -71 -9 -94 12 -18 26 9 35 66 7 50 -2 60
-26 28z"/>
<path d="M6610 4322 c0 -5 7 -13 16 -16 10 -4 14 -1 12 6 -5 15 -28 23 -28 10z"/>
<path d="M6670 4300 c0 -5 7 -10 15 -10 8 0 15 5 15 10 0 6 -7 10 -15 10 -8 0
-15 -4 -15 -10z"/>
<path d="M6285 4270 c-8 -13 15 -13 35 0 12 8 11 10 -7 10 -12 0 -25 -4 -28
-10z"/>
<path d="M6530 4250 c0 -5 4 -10 9 -10 6 0 13 5 16 10 3 6 -1 10 -9 10 -9 0
-16 -4 -16 -10z"/>
<path d="M4420 4224 c-119 -39 -216 -55 -351 -61 -141 -6 -270 8 -336 37 l-43
19 0 -73 c0 -45 6 -84 15 -104 15 -29 19 -31 103 -39 48 -4 157 -8 242 -8 140
0 170 3 307 34 132 30 155 38 169 59 24 37 26 87 3 116 -10 13 -19 29 -19 35
0 14 -2 14 -90 -15z"/>
<path d="M6526 4218 c3 -5 10 -6 15 -3 13 9 11 12 -6 12 -8 0 -12 -4 -9 -9z"/>
<path d="M6211 4171 c-8 -5 -9 -11 -3 -15 5 -3 12 1 16 9 6 17 6 18 -13 6z"/>
<path d="M6315 4160 c-19 -8 -19 -9 3 -9 12 -1 22 4 22 9 0 6 -1 10 -2 9 -2 0
-12 -4 -23 -9z"/>
<path d="M6496 4138 c5 -8 -2 -9 -24 -5 -40 8 -40 3 0 -17 37 -19 41 -20 33
-6 -4 6 -1 17 5 25 10 12 9 15 -4 15 -11 0 -14 -5 -10 -12z"/>
<path d="M6146 4130 c-15 -5 -16 -9 -7 -14 7 -5 18 -3 24 3 14 14 6 20 -17 11z"/>
<path d="M6320 4135 c0 -6 7 -19 15 -29 8 -10 12 -23 9 -27 -3 -5 7 -9 23 -9
25 1 26 2 9 11 -14 9 -16 13 -5 20 8 4 19 3 26 -3 9 -7 13 -7 13 0 0 15 -38
35 -55 29 -7 -3 -18 0 -24 6 -6 6 -11 7 -11 2z"/>
<path d="M6240 4113 c0 -26 72 -74 88 -58 12 12 -16 40 -44 43 -16 2 -32 9
-36 15 -6 9 -8 9 -8 0z"/>
<path d="M6380 4050 c8 -5 20 -10 25 -10 6 0 3 5 -5 10 -8 5 -19 10 -25 10 -5
0 -3 -5 5 -10z"/>
<path d="M6330 4029 c0 -4 6 -9 13 -12 8 -3 14 0 14 7 0 7 -6 13 -14 13 -7 0
-13 -4 -13 -8z"/>
<path d="M6080 4026 c0 -9 30 -14 35 -6 4 6 -3 10 -14 10 -12 0 -21 -2 -21 -4z"/>
<path d="M6165 4020 c-3 -5 -1 -10 4 -10 6 0 11 5 11 10 0 6 -2 10 -4 10 -3 0
-8 -4 -11 -10z"/>
<path d="M6193 4003 c4 -3 2 -12 -4 -20 -14 -16 -1 -17 36 -3 31 12 24 30 -12
30 -15 0 -23 -3 -20 -7z"/>
<path d="M6010 3960 c0 -5 4 -10 9 -10 6 0 13 5 16 10 3 6 -1 10 -9 10 -9 0
-16 -4 -16 -10z"/>
<path d="M6115 3960 c3 -5 8 -10 11 -10 2 0 4 5 4 10 0 6 -5 10 -11 10 -5 0
-7 -4 -4 -10z"/>
<path d="M6140 3962 c0 -11 33 -25 65 -28 11 -1 28 -4 37 -8 13 -6 17 -3 15
11 -1 14 -10 19 -36 20 -20 0 -46 4 -58 8 -14 4 -23 3 -23 -3z"/>
<path d="M5858 3953 c7 -3 16 -2 19 1 4 3 -2 6 -13 5 -11 0 -14 -3 -6 -6z"/>
<path d="M6065 3920 c-3 -5 -1 -10 4 -10 6 0 11 5 11 10 0 6 -2 10 -4 10 -3 0
-8 -4 -11 -10z"/>
<path d="M6138 3923 c24 -10 12 -25 -18 -21 -22 3 -27 2 -19 -8 16 -19 49 -24
49 -7 0 12 9 14 51 8 37 -5 50 -4 45 4 -4 6 -12 9 -17 5 -5 -3 -15 -1 -22 4
-7 5 -28 12 -47 15 -19 3 -29 3 -22 0z"/>
<path d="M3701 3872 c-8 -15 -21 -18 -80 -16 -75 3 -121 -17 -109 -48 7 -18
127 -68 163 -68 31 0 34 6 41 84 6 67 2 80 -15 48z"/>
<path d="M3762 3886 c3 -4 2 -20 -2 -36 -6 -21 -4 -30 6 -34 8 -3 14 -11 14
-18 0 -7 13 -19 30 -26 26 -12 37 -11 84 6 36 13 59 16 70 10 9 -5 49 -7 88
-4 67 4 87 14 88 41 0 6 5 3 11 -5 8 -12 10 -12 7 -1 -4 16 -29 21 -94 21 -55
0 -144 -17 -160 -31 -9 -7 -19 -7 -36 2 -13 7 -27 12 -31 11 -5 -1 -6 2 -2 7
8 14 -41 45 -56 35 -7 -4 -9 -3 -5 4 3 6 1 14 -6 18 -7 4 -10 4 -6 0z"/>
<path d="M6030 3880 c0 -5 5 -10 10 -10 6 0 10 5 10 10 0 6 -4 10 -10 10 -5 0
-10 -4 -10 -10z"/>
<path d="M5968 3863 c-10 -2 -18 -9 -18 -15 0 -5 6 -8 13 -5 6 2 24 -2 40 -10
15 -8 27 -9 27 -3 0 5 -11 12 -25 16 -14 3 -22 10 -19 15 3 5 4 8 2 8 -2 -1
-11 -3 -20 -6z"/>
<path d="M6077 3849 c7 -7 15 -10 18 -7 3 3 -2 9 -12 12 -14 6 -15 5 -6 -5z"/>
<path d="M6050 3829 c0 -5 5 -7 10 -4 6 3 10 8 10 11 0 2 -4 4 -10 4 -5 0 -10
-5 -10 -11z"/>
<path d="M3126 3802 c-4 -7 -2 -20 6 -29 9 -12 9 -15 1 -9 -9 5 -13 0 -13 -14
0 -16 -4 -20 -16 -16 -9 3 -20 3 -26 0 -17 -11 43 -34 116 -45 72 -10 86 -12
208 -24 l68 -7 -20 56 c-10 31 -17 63 -14 71 6 14 -35 17 -240 16 -11 0 -23
-6 -27 -13 -7 -11 -9 -11 -9 0 0 7 -4 11 -9 8 -5 -4 -11 -1 -13 6 -3 9 -6 9
-12 0z"/>
<path d="M4210 3730 l0 -59 78 -2 c42 0 88 -1 102 -1 94 -1 151 20 132 48 -8
11 -86 28 -225 48 -21 4 -47 11 -57 16 -29 15 -30 14 -30 -50z"/>
<path d="M5780 3780 c0 -12 14 -18 50 -22 14 -2 31 -7 38 -11 6 -5 17 -5 22
-2 21 13 8 21 -37 24 -27 1 -49 6 -51 12 -5 12 -22 12 -22 -1z"/>
<path d="M5445 3750 c3 -5 8 -10 11 -10 2 0 4 5 4 10 0 6 -5 10 -11 10 -5 0
-7 -4 -4 -10z"/>
<path d="M5550 3735 c33 -19 45 -19 26 0 -8 8 -23 15 -33 15 -14 -1 -13 -4 7
-15z"/>
<path d="M5640 3740 c0 -5 5 -10 11 -10 5 0 7 5 4 10 -3 6 -8 10 -11 10 -2 0
-4 -4 -4 -10z"/>
<path d="M5810 3730 c0 -5 4 -10 9 -10 6 0 13 5 16 10 3 6 -1 10 -9 10 -9 0
-16 -4 -16 -10z"/>
<path d="M5377 3709 c7 -7 15 -10 18 -7 3 3 -2 9 -12 12 -14 6 -15 5 -6 -5z"/>
<path d="M5756 3706 c8 -21 37 -28 65 -17 24 10 24 10 2 10 -33 1 -36 2 -55
12 -14 7 -16 6 -12 -5z"/>
<path d="M5590 3689 c0 -5 5 -7 10 -4 6 3 10 8 10 11 0 2 -4 4 -10 4 -5 0 -10
-5 -10 -11z"/>
<path d="M4597 3632 c-2 -31 -2 -61 1 -66 8 -15 120 1 154 22 18 11 44 23 58
27 97 27 113 54 32 56 -66 2 -117 5 -188 13 l-52 6 -5 -58z"/>
<path d="M5410 3682 c0 -15 11 -21 27 -15 12 5 12 7 1 14 -17 11 -28 11 -28 1z"/>
<path d="M5610 3660 c0 -5 5 -10 11 -10 5 0 7 5 4 10 -3 6 -8 10 -11 10 -2 0
-4 -4 -4 -10z"/>
<path d="M3471 3633 c1 -10 4 -31 8 -48 7 -30 7 -30 19 -8 10 19 10 27 -4 48
-19 30 -24 31 -23 8z"/>
<path d="M5470 3619 c0 -5 5 -7 10 -4 6 3 10 8 10 11 0 2 -4 4 -10 4 -5 0 -10
-5 -10 -11z"/>
<path d="M5510 3626 c0 -2 7 -6 15 -10 8 -3 15 -1 15 4 0 6 -7 10 -15 10 -8 0
-15 -2 -15 -4z"/>
<path d="M5341 3604 c-7 -8 -10 -18 -6 -22 3 -3 10 0 15 8 7 12 13 9 33 -12
18 -19 27 -23 30 -14 3 8 -5 19 -19 26 -13 8 -24 17 -24 22 0 13 -14 9 -29 -8z"/>
<path d="M5400 3600 c0 -5 5 -10 10 -10 6 0 10 5 10 10 0 6 -4 10 -10 10 -5 0
-10 -4 -10 -10z"/>
<path d="M5110 3565 c0 -3 8 -14 17 -25 18 -21 43 -27 43 -10 0 6 -7 10 -15
10 -8 0 -15 4 -15 9 0 5 -7 11 -15 15 -8 3 -15 3 -15 1z"/>
<path d="M5215 3540 c3 -5 11 -10 16 -10 6 0 7 5 4 10 -3 6 -11 10 -16 10 -6
0 -7 -4 -4 -10z"/>
<path d="M5278 3542 c-28 -6 -21 -22 10 -22 38 0 61 16 30 22 -12 2 -31 2 -40
0z"/>
<path d="M3740 3476 c0 -8 5 -50 11 -93 6 -43 12 -89 14 -103 3 -33 12 -32 30
4 19 35 13 83 -17 152 -22 52 -38 68 -38 40z"/>
<path d="M4765 3480 c-3 -5 -1 -10 4 -10 6 0 11 5 11 10 0 6 -2 10 -4 10 -3 0
-8 -4 -11 -10z"/>
<path d="M4680 3470 c0 -5 10 -10 23 -10 18 0 19 2 7 10 -19 13 -30 13 -30 0z"/>
<path d="M5195 3470 c3 -5 8 -10 11 -10 2 0 4 5 4 10 0 6 -5 10 -11 10 -5 0
-7 -4 -4 -10z"/>
<path d="M2730 3391 c0 -6 4 -13 10 -16 6 -3 7 1 4 9 -7 18 -14 21 -14 7z"/>
<path d="M7665 1060 c3 -5 8 -10 11 -10 2 0 4 5 4 10 0 6 -5 10 -11 10 -5 0
-7 -4 -4 -10z"/>
<path d="M7515 870 c3 -5 13 -10 21 -10 8 0 12 5 9 10 -3 6 -13 10 -21 10 -8
0 -12 -4 -9 -10z"/>
<path d="M2335 831 c-3 -5 -1 -12 5 -16 5 -3 10 1 10 9 0 18 -6 21 -15 7z"/>
<path d="M2307 769 c7 -7 15 -10 18 -7 3 3 -2 9 -12 12 -14 6 -15 5 -6 -5z"/>
<path d="M2045 550 c-10 -11 -14 -20 -9 -20 5 0 2 -5 -6 -10 -11 -7 -11 -10
-2 -10 7 0 11 -4 8 -9 -8 -12 35 -1 50 13 6 5 8 20 6 33 -4 20 -7 22 -20 11
-12 -10 -14 -10 -8 0 11 18 1 15 -19 -8z"/>
<path d="M3910 560 c0 -5 5 -10 11 -10 5 0 7 5 4 10 -3 6 -8 10 -11 10 -2 0
-4 -4 -4 -10z"/>
<path d="M4510 566 c0 -9 30 -14 35 -6 4 6 -3 10 -14 10 -12 0 -21 -2 -21 -4z"/>
<path d="M1970 476 c0 -4 -6 -6 -14 -3 -8 3 -17 -1 -20 -10 -4 -9 -14 -13 -26
-10 -11 3 -23 1 -26 -4 -3 -5 -11 -6 -17 -3 -7 4 -9 4 -5 0 6 -7 -1 -17 -49
-68 -8 -9 -29 -20 -47 -24 -17 -4 -25 -9 -19 -11 17 -6 -14 -38 -36 -38 -10 0
-15 -8 -13 -18 3 -17 -10 -26 -45 -31 -10 -2 -18 -9 -18 -17 -1 -8 -6 -13 -13
-11 -7 1 -12 -2 -12 -8 0 -5 -6 -10 -14 -10 -8 0 -16 -7 -20 -15 -3 -8 -12
-15 -20 -15 -16 0 -87 -39 -97 -53 -4 -5 -12 -6 -18 -3 -6 4 -11 3 -11 -2 0
-5 11 -14 25 -20 14 -7 30 -22 35 -34 5 -13 9 -17 10 -8 0 12 2 13 9 1 6 -10
17 -11 37 -6 33 9 29 9 72 0 29 -6 32 -4 32 16 l0 22 19 -22 c17 -19 21 -20
34 -6 15 15 62 15 86 1 6 -4 11 -1 11 6 0 8 3 9 8 3 13 -18 54 -10 120 22 33
17 42 37 20 46 -10 4 -10 8 1 15 7 5 11 18 7 29 -5 14 1 21 27 31 27 11 30 15
17 25 -19 15 -24 58 -9 68 7 4 4 9 -11 14 -18 6 -21 13 -18 36 3 16 1 29 -4
29 -4 0 -8 7 -8 15 0 8 7 15 15 15 8 0 15 7 15 16 0 8 -4 12 -10 9 -6 -3 -7 1
-4 10 4 9 12 14 20 11 7 -3 17 1 22 7 8 9 4 12 -14 12 -13 0 -24 -4 -24 -9z"/>
<path d="M1970 350 c0 -5 5 -10 11 -10 5 0 7 5 4 10 -3 6 -8 10 -11 10 -2 0
-4 -4 -4 -10z"/>
<path d="M2016 305 c-18 -14 -24 -25 -17 -29 6 -4 9 -12 6 -17 -4 -5 3 -9 15
-9 12 0 18 4 15 10 -4 7 2 9 19 4 16 -4 26 -2 26 5 0 6 -4 11 -10 11 -5 0 -10
9 -10 19 0 30 -12 31 -44 6z"/>
<path d="M2080 220 c0 -11 2 -20 4 -20 2 0 6 9 9 20 3 11 1 20 -4 20 -5 0 -9
-9 -9 -20z"/>
<path d="M4700 210 c0 -5 5 -10 10 -10 6 0 10 5 10 10 0 6 -4 10 -10 10 -5 0
-10 -4 -10 -10z"/>
<path d="M4738 203 c7 -3 16 -2 19 1 4 3 -2 6 -13 5 -11 0 -14 -3 -6 -6z"/>
<path d="M270 20 c-32 -7 -31 -7 18 -9 28 0 52 3 52 7 0 10 -25 10 -70 2z"/>
<path d="M158 13 c7 -3 16 -2 19 1 4 3 -2 6 -13 5 -11 0 -14 -3 -6 -6z"/>
</g>
</svg>
