<svg width="20" height="24" viewBox="0 0 20 24" fill="none" xmlns="http://www.w3.org/2000/svg">
<path fill-rule="evenodd" clip-rule="evenodd" d="M1.41382 10.3154C1.42959 5.63355 5.20551 1.85109 9.84758 1.86699C14.4896 1.8829 18.24 5.69116 18.2242 10.373V10.469C18.1671 13.5123 16.4823 16.3252 14.4167 18.5237C13.2353 19.761 11.9161 20.8563 10.4853 21.7879C10.1028 22.1216 9.53528 22.1216 9.1527 21.7879C7.01973 20.3877 5.14769 18.6198 3.62221 16.5652C2.26258 14.7736 1.49063 12.599 1.41382 10.3442L1.41382 10.3154Z" stroke="#181725" stroke-width="2" stroke-linecap="round" stroke-linejoin="round"/>
<path fill-rule="evenodd" clip-rule="evenodd" d="M9.81905 12.8399C11.1122 12.8399 12.1606 11.7826 12.1606 10.4784C12.1606 9.17413 11.1122 8.11682 9.81905 8.11682C8.52587 8.11682 7.47754 9.17413 7.47754 10.4784C7.47754 11.7826 8.52587 12.8399 9.81905 12.8399Z" stroke="#181725" stroke-width="2" stroke-linecap="round" stroke-linejoin="round"/>
</svg>
