<svg width="21" height="16" viewBox="0 0 21 16" fill="none" xmlns="http://www.w3.org/2000/svg">
<path d="M2.81909 2.28353H2.71909V2.38353V13.1091V13.2091H2.81909H18.8191H18.9191V13.1091V2.38353V2.28353H18.8191H2.81909ZM2.81909 0.338403H18.8191C19.3207 0.338403 19.8032 0.552041 20.1602 0.934889C20.5173 1.31797 20.7191 1.83895 20.7191 2.38353V13.1091C20.7191 13.6537 20.5173 14.1747 20.1602 14.5578C19.8032 14.9406 19.3207 15.1543 18.8191 15.1543H2.81909C2.31753 15.1543 1.83497 14.9406 1.47802 14.5578C1.12085 14.1747 0.919092 13.6537 0.919092 13.1091V2.38353C0.919092 1.83895 1.12085 1.31797 1.47802 0.934889C1.83497 0.552041 2.31753 0.338403 2.81909 0.338403ZM11.8191 4.62865H16.8191C17.0554 4.62865 17.2836 4.72929 17.4531 4.91099C17.6227 5.09293 17.7191 5.3411 17.7191 5.60121C17.7191 5.86132 17.6227 6.10949 17.4531 6.29143C17.2836 6.47314 17.0554 6.57377 16.8191 6.57377H11.8191C11.5827 6.57377 11.3545 6.47314 11.1851 6.29143C11.0155 6.10949 10.9191 5.86132 10.9191 5.60121C10.9191 5.3411 11.0155 5.09293 11.1851 4.91099C11.3545 4.72929 11.5827 4.62865 11.8191 4.62865ZM11.8191 7.84633H16.8191C17.0554 7.84633 17.2836 7.94697 17.4531 8.12867C17.6227 8.31061 17.7191 8.55878 17.7191 8.8189C17.7191 9.07901 17.6227 9.32718 17.4531 9.50912C17.2836 9.69082 17.0554 9.79146 16.8191 9.79146H11.8191C11.5827 9.79146 11.3545 9.69082 11.1851 9.50912C11.0155 9.32718 10.9191 9.07901 10.9191 8.8189C10.9191 8.55878 11.0155 8.31061 11.1851 8.12867C11.3545 7.94697 11.5827 7.84633 11.8191 7.84633Z" fill="#181725" stroke="white" stroke-width="0.2"/>
<g clip-path="url(#clip0_34_1081)">
<path d="M7.56938 5.43409V5.99679C7.56938 6.30121 7.4318 6.58717 7.19331 6.79011C6.94566 7.00228 6.62462 7.1222 6.28524 7.1222C5.94586 7.1222 5.61565 7.00228 5.37717 6.79011C5.13869 6.58717 5.0011 6.30121 5.0011 5.99679V5.43409C5.0011 5.1389 5.13869 4.85294 5.37717 4.64077C5.61565 4.42861 5.94586 4.30869 6.28524 4.30869C6.62462 4.30869 6.94566 4.42861 7.19331 4.64077C7.4318 4.85294 7.56938 5.1389 7.56938 5.43409Z" fill="#181725"/>
<path d="M8.53246 8.75491V9.21614C8.53246 9.43753 8.42239 9.65892 8.24812 9.81574C8.06467 9.97256 7.81701 10.0648 7.56936 10.0648H5.00107C4.74424 10.0648 4.49659 9.97256 4.32231 9.81574C4.13886 9.65892 4.03796 9.43753 4.03796 9.21614V8.72723C4.03796 8.41359 4.14803 8.09996 4.34983 7.84167C4.55162 7.58338 4.83597 7.38043 5.16617 7.26051C5.21204 7.25129 5.24873 7.24207 5.29459 7.24207C5.34045 7.24207 5.37714 7.25129 5.423 7.26051H7.06487C7.08322 7.26051 7.09239 7.26051 7.10156 7.26974C7.10156 7.26051 7.11073 7.26051 7.11073 7.26051C7.25749 7.25129 7.34922 7.26051 7.35839 7.26051C7.70694 7.38043 8.00046 7.58338 8.21143 7.85089C8.41322 8.11841 8.53246 8.43204 8.53246 8.75491Z" fill="#181725"/>
</g>
<defs>
<clipPath id="clip0_34_1081">
<rect width="6" height="7.68429" fill="white" transform="translate(3.81909 4.30869)"/>
</clipPath>
</defs>
</svg>
