<svg width="22" height="28" viewBox="0 0 22 28" fill="none" xmlns="http://www.w3.org/2000/svg">
<path fill-rule="evenodd" clip-rule="evenodd" d="M7.00909 1.23821C3.90715 0.599039 1 2.96822 1 6.13533V21.0401C1 24.2181 3.92592 26.5897 7.03503 25.9318L17.035 23.8159C19.3464 23.3269 21 21.2868 21 18.9242V8.1959C21 5.82342 19.3327 3.77759 17.0091 3.29878L7.00909 1.23821Z" stroke="white"/>
<circle cx="10.5164" cy="14.3311" r="0.38672" fill="white"/>
<circle cx="11.9666" cy="14.3311" r="0.38672" fill="white"/>
<circle cx="11.9666" cy="12.6876" r="0.38672" fill="white"/>
<circle cx="9.06616" cy="12.6876" r="0.38672" fill="white"/>
<circle cx="9.06616" cy="14.4279" r="0.38672" fill="white"/>
<circle cx="10.5164" cy="12.6876" r="0.38672" fill="white"/>
<circle cx="10.5165" cy="11.0441" r="0.29004" fill="white"/>
<circle cx="8.96948" cy="10.9474" r="0.29004" fill="white"/>
<circle cx="7.42261" cy="12.6876" r="0.29004" fill="white"/>
<circle cx="13.4169" cy="12.6876" r="0.29004" fill="white"/>
<circle cx="7.42261" cy="14.4279" r="0.29004" fill="white"/>
<circle cx="13.4169" cy="14.2344" r="0.29004" fill="white"/>
<circle cx="7.42261" cy="16.168" r="0.29004" fill="white"/>
<circle cx="13.4169" cy="15.9747" r="0.29004" fill="white"/>
<circle cx="11.9666" cy="11.1407" r="0.29004" fill="white"/>
<circle cx="11.9666" cy="15.9747" r="0.29004" fill="white"/>
<circle cx="10.5165" cy="16.0715" r="0.29004" fill="white"/>
<circle cx="8.96948" cy="16.0715" r="0.29004" fill="white"/>
<circle cx="10.5164" cy="9.40051" r="0.19336" fill="white"/>
<circle cx="8.96948" cy="9.30377" r="0.19336" fill="white"/>
<circle cx="7.42261" cy="9.11047" r="0.19336" fill="white"/>
<circle cx="13.4167" cy="9.49719" r="0.19336" fill="white"/>
<circle cx="7.42261" cy="10.9474" r="0.19336" fill="white"/>
<circle cx="13.4167" cy="11.1408" r="0.19336" fill="white"/>
<circle cx="12.0634" cy="9.49719" r="0.19336" fill="white"/>
<circle cx="11.9666" cy="17.6183" r="0.19336" fill="white"/>
<circle cx="10.5164" cy="17.715" r="0.19336" fill="white"/>
<circle cx="8.96948" cy="17.9084" r="0.19336" fill="white"/>
<circle cx="7.42261" cy="17.9084" r="0.19336" fill="white"/>
<circle cx="13.4167" cy="17.5215" r="0.19336" fill="white"/>
<circle cx="5.68237" cy="16.2648" r="0.19336" fill="white"/>
<circle cx="5.68237" cy="14.5245" r="0.19336" fill="white"/>
<circle cx="5.68237" cy="12.6876" r="0.19336" fill="white"/>
<circle cx="14.7704" cy="12.6876" r="0.19336" fill="white"/>
<circle cx="5.68237" cy="10.8507" r="0.19336" fill="white"/>
<circle cx="14.7704" cy="11.2374" r="0.19336" fill="white"/>
<circle cx="10.5164" cy="7.7569" r="0.0966801" fill="white"/>
<circle cx="8.96948" cy="7.5636" r="0.0966801" fill="white"/>
<circle cx="5.68237" cy="9.11041" r="0.0966801" fill="white"/>
<circle cx="3.94214" cy="10.8507" r="0.0966801" fill="white"/>
<circle cx="16.1239" cy="11.2374" r="0.0966801" fill="white"/>
<circle cx="16.1239" cy="12.7842" r="0.0966801" fill="white"/>
<circle cx="3.94214" cy="12.5909" r="0.0966801" fill="white"/>
<circle cx="3.94214" cy="14.5245" r="0.0966801" fill="white"/>
<circle cx="3.94214" cy="16.2648" r="0.0966801" fill="white"/>
<circle cx="14.7703" cy="9.69049" r="0.0966801" fill="white"/>
<circle cx="7.37439" cy="7.51526" r="0.04834" fill="white"/>
<circle cx="13.3684" cy="8.19189" r="0.04834" fill="white"/>
<circle cx="10.5164" cy="19.3585" r="0.0966801" fill="white"/>
<circle cx="8.96948" cy="19.5519" r="0.0966801" fill="white"/>
<circle cx="5.68237" cy="18.005" r="0.0966801" fill="white"/>
<circle cx="7.37439" cy="19.697" r="0.04834" fill="white"/>
<circle cx="13.3684" cy="18.9235" r="0.04834" fill="white"/>
<circle cx="12.0632" cy="19.1652" r="0.0966801" fill="white"/>
<circle cx="12.0632" cy="7.9502" r="0.0966801" fill="white"/>
<path fill-rule="evenodd" clip-rule="evenodd" d="M13.6102 14.6519C13.6102 13.6739 14.4031 12.881 15.3812 12.881C16.3531 12.881 17.1433 13.6642 17.1521 14.636L17.1918 19.0479C17.2004 20.012 16.4441 20.81 15.4809 20.853C14.4615 20.8985 13.6102 20.0843 13.6102 19.064V14.6519Z" fill="#2A2A2A" stroke="white"/>
<path fill-rule="evenodd" clip-rule="evenodd" d="M13.7068 14.6878C13.7068 13.7433 14.4725 12.9777 15.417 12.9777V12.9777C16.3514 12.9777 17.1129 13.7278 17.1269 14.6621L17.1947 19.171C17.2087 20.0994 16.4928 20.8759 15.5664 20.9374V20.9374C14.5599 21.0043 13.7068 20.2059 13.7068 19.1972V14.6878Z" stroke="white"/>
<mask id="mask0_27_601" style="mask-type:luminance" maskUnits="userSpaceOnUse" x="13" y="12" width="5" height="10">
<path fill-rule="evenodd" clip-rule="evenodd" d="M13.7068 14.6878C13.7068 13.7433 14.4725 12.9777 15.417 12.9777C16.3514 12.9777 17.1129 13.7278 17.1269 14.6621L17.1947 19.171C17.2087 20.0994 16.4928 20.8759 15.5664 20.9374C14.5599 21.0043 13.7068 20.2059 13.7068 19.1972V14.6878Z" fill="white" stroke="white"/>
</mask>
<g mask="url(#mask0_27_601)">
<path fill-rule="evenodd" clip-rule="evenodd" d="M15.1256 12.9777L17.1408 16.82V12.9777H15.1256Z" fill="#807F7F"/>
<path fill-rule="evenodd" clip-rule="evenodd" d="M14.4323 12.881C14.4323 13.1102 14.6181 13.296 14.8473 13.296H16.0372C16.2665 13.296 16.4523 13.1102 16.4523 12.881H14.4323Z" fill="white"/>
</g>
<path fill-rule="evenodd" clip-rule="evenodd" d="M13.7068 14.6878C13.7068 13.7433 14.4725 12.9777 15.417 12.9777V12.9777C16.3514 12.9777 17.1129 13.7278 17.1269 14.6621L17.1947 19.171C17.2087 20.0994 16.4928 20.8759 15.5664 20.9374V20.9374C14.5599 21.0043 13.7068 20.2059 13.7068 19.1972V14.6878Z" stroke="white"/>
</svg>
