<svg width="21" height="22" viewBox="0 0 21 22" fill="none" xmlns="http://www.w3.org/2000/svg">
<path d="M4.81909 1L1.81909 5V19C1.81909 19.5304 2.02981 20.0391 2.40488 20.4142C2.77995 20.7893 3.28866 21 3.81909 21H17.8191C18.3495 21 18.8582 20.7893 19.2333 20.4142C19.6084 20.0391 19.8191 19.5304 19.8191 19V5L16.8191 1H4.81909Z" stroke="#181725" stroke-width="2" stroke-linecap="round" stroke-linejoin="round"/>
<path d="M1.81909 5H19.8191" stroke="#181725" stroke-width="2" stroke-linecap="round" stroke-linejoin="round"/>
<path d="M14.8191 9C14.8191 10.0609 14.3977 11.0783 13.6475 11.8284C12.8974 12.5786 11.88 13 10.8191 13C9.75823 13 8.74081 12.5786 7.99066 11.8284C7.24052 11.0783 6.81909 10.0609 6.81909 9" stroke="#181725" stroke-width="2" stroke-linecap="round" stroke-linejoin="round"/>
</svg>
